<?xml version="1.0" encoding="UTF-8" ?>
<!DOCTYPE svg PUBLIC "-//W3C//DTD SVG 1.1//EN" "http://www.w3.org/Graphics/SVG/1.1/DTD/svg11.dtd">
<svg width="1366pt" height="768pt" viewBox="0 0 1366 768" version="1.1" xmlns="http://www.w3.org/2000/svg">
<g id="#ffffffff">
</g>
<g id="#1898caff">
<path fill="#1898ca" opacity="1.00" d=" M 257.30 158.45 C 262.45 157.46 267.76 158.24 272.97 157.99 C 276.88 158.11 281.61 157.19 284.60 160.38 C 286.99 162.54 286.90 165.98 286.92 168.93 C 286.85 177.65 286.94 186.37 286.88 195.09 C 286.92 197.67 286.20 200.40 284.12 202.08 C 281.68 204.37 278.10 204.01 275.02 204.08 C 269.68 203.92 264.33 204.28 259.00 203.90 C 255.12 203.58 251.89 200.00 252.04 196.09 C 251.93 186.36 252.03 176.63 251.99 166.89 C 251.73 163.32 253.78 159.55 257.30 158.45 Z" />
<path fill="#1898ca" opacity="1.00" d=" M 30.01 163.82 C 51.27 161.80 72.65 160.87 94.01 161.03 C 117.71 161.83 142.20 163.76 163.92 174.10 C 178.51 180.87 191.20 192.66 197.18 207.78 C 202.00 219.88 202.13 233.15 201.63 245.97 C 201.06 258.77 196.77 271.53 188.67 281.54 C 181.49 290.73 171.49 297.33 160.75 301.63 C 174.13 306.35 186.08 315.33 193.50 327.52 C 200.93 339.21 203.74 353.30 203.30 367.02 C 203.67 383.95 201.05 401.85 190.88 415.87 C 179.83 432.22 161.29 441.66 142.60 446.40 C 122.45 451.24 101.59 452.31 80.94 451.95 C 62.91 451.46 44.79 451.36 26.97 448.32 C 23.69 447.75 20.16 446.59 18.20 443.70 C 16.34 440.84 16.11 437.29 16.00 433.98 C 15.99 350.65 16.02 267.31 15.99 183.98 C 16.04 178.84 15.48 173.11 18.65 168.70 C 21.22 165.09 25.88 164.15 30.01 163.82 M 51.23 192.14 C 51.25 223.76 51.23 255.38 51.24 287.00 C 72.82 286.94 94.41 287.13 116.00 286.89 C 130.63 286.46 146.45 282.87 156.82 271.81 C 165.38 262.88 167.14 249.85 166.92 238.00 C 167.18 228.20 165.68 217.65 159.14 209.92 C 150.26 198.94 135.91 194.60 122.43 192.81 C 98.80 190.00 74.93 191.00 51.23 192.14 M 51.24 315.05 C 51.24 350.16 51.23 385.28 51.24 420.39 C 71.80 421.24 92.45 423.16 113.00 420.99 C 124.69 419.85 136.62 417.76 147.00 411.97 C 154.13 408.07 160.04 401.96 163.61 394.64 C 168.39 384.87 168.64 373.70 168.44 363.04 C 168.11 351.78 165.65 339.76 157.67 331.30 C 146.94 319.60 130.45 315.35 115.05 315.08 C 93.78 315.00 72.51 315.07 51.24 315.05 Z" />
<path fill="#1898ca" opacity="1.00" d=" M 409.44 235.65 C 429.03 233.75 449.73 236.03 467.08 245.90 C 479.05 252.53 488.79 262.86 495.15 274.93 C 501.28 286.37 504.62 299.13 506.12 311.97 C 507.70 325.58 506.89 339.30 507.09 352.97 C 507.44 371.74 505.22 390.99 497.21 408.16 C 491.18 421.23 481.49 432.75 469.03 440.10 C 451.46 450.72 430.12 453.26 409.98 451.41 C 392.16 449.92 374.44 443.05 361.56 430.41 C 348.86 418.04 341.58 401.08 338.41 383.84 C 335.28 367.76 336.28 351.31 336.10 335.03 C 335.95 320.89 336.83 306.59 340.83 292.96 C 345.17 277.62 353.46 263.07 365.90 252.89 C 378.15 242.75 393.69 237.09 409.44 235.65 M 410.56 265.75 C 402.31 267.02 394.16 270.16 387.91 275.82 C 378.77 284.12 374.06 296.18 371.82 308.08 C 369.57 319.25 370.16 330.69 370.09 342.02 C 370.20 355.55 369.33 369.29 372.59 382.56 C 375.45 394.68 381.11 407.04 391.70 414.24 C 402.57 421.62 416.32 422.70 429.07 421.66 C 441.08 420.61 453.14 415.34 460.42 405.45 C 471.42 390.83 473.70 371.79 473.42 354.01 C 473.06 336.66 474.83 318.93 470.16 301.99 C 466.95 290.22 460.74 278.46 450.04 271.94 C 438.30 264.80 423.86 264.08 410.56 265.75 Z" />
<path fill="#1898ca" opacity="1.00" d=" M 257.36 238.55 C 262.16 237.40 267.18 238.25 272.07 237.99 C 275.98 238.13 280.67 237.17 283.74 240.25 C 286.76 242.96 286.08 247.35 286.16 250.98 C 286.12 312.32 286.13 373.67 286.16 435.01 C 286.01 438.92 286.97 443.69 283.72 446.65 C 281.25 449.38 277.30 449.05 273.96 449.07 C 269.25 448.95 264.53 449.23 259.83 448.94 C 255.80 448.79 252.25 445.08 252.49 441.02 C 252.47 376.01 252.48 311.00 252.49 246.00 C 252.32 242.80 254.37 239.67 257.36 238.55 Z" />
</g>
<g id="#8ec63fff">
<path fill="#8ec63f" opacity="1.00" d=" M 618.28 161.26 C 638.91 160.44 659.92 161.09 679.83 167.06 C 696.82 171.95 712.72 181.27 724.37 194.67 C 737.39 209.58 745.16 228.52 748.57 247.88 C 752.54 269.37 750.92 291.30 751.26 313.02 C 751.45 335.44 751.75 358.32 744.98 379.97 C 739.72 397.28 730.57 413.77 716.85 425.79 C 703.20 438.01 685.78 445.35 667.94 448.85 C 655.14 451.45 642.03 452.18 629.00 451.98 C 611.29 451.71 593.60 450.86 575.94 449.46 C 571.15 448.97 566.21 448.88 561.64 447.23 C 558.05 445.76 556.91 441.58 557.01 438.04 C 556.98 350.70 557.03 263.37 556.98 176.03 C 557.02 173.03 557.20 169.65 559.46 167.39 C 562.23 164.64 566.41 164.63 570.04 164.08 C 586.08 162.58 602.18 161.72 618.28 161.26 M 592.25 192.16 C 592.27 268.45 592.25 344.75 592.26 421.05 C 605.46 422.19 618.73 421.86 631.96 421.96 C 649.59 422.12 668.19 419.96 683.40 410.36 C 697.79 401.34 707.12 386.04 711.79 370.00 C 717.68 349.55 716.15 328.06 716.39 307.05 C 716.13 286.24 717.66 265.02 712.31 244.68 C 708.27 229.55 700.42 214.79 687.57 205.39 C 674.05 195.13 656.68 191.81 640.07 191.11 C 624.13 191.02 608.15 190.82 592.25 192.16 Z" />
<path fill="#8ec63f" opacity="1.00" d=" M 1255.32 193.46 C 1261.20 192.11 1267.25 191.63 1273.20 190.55 C 1275.98 190.22 1279.26 189.26 1281.67 191.28 C 1284.10 193.03 1283.94 196.31 1284.02 198.99 C 1283.98 211.99 1284.01 224.99 1284.00 238.00 C 1297.68 238.03 1311.37 237.94 1325.06 238.03 C 1328.94 237.87 1332.74 240.98 1332.97 244.94 C 1333.21 249.64 1333.22 254.38 1332.97 259.09 C 1332.67 263.00 1328.98 266.15 1325.09 266.00 C 1311.39 266.14 1297.69 266.00 1284.00 266.05 C 1283.99 309.36 1284.01 352.68 1284.00 395.99 C 1284.07 403.23 1283.52 410.82 1286.41 417.64 C 1288.44 422.55 1294.16 424.14 1298.97 424.69 C 1308.33 425.39 1317.73 424.74 1327.10 425.06 C 1329.76 425.14 1333.36 425.93 1333.97 429.01 C 1334.43 434.00 1334.24 439.05 1334.11 444.06 C 1334.17 447.80 1330.33 449.84 1327.06 450.11 C 1310.87 452.18 1294.25 453.13 1278.17 449.70 C 1270.25 447.99 1262.83 443.43 1258.40 436.55 C 1251.69 426.42 1250.38 413.87 1250.25 402.01 C 1250.24 356.68 1250.24 311.35 1250.25 266.02 C 1237.84 264.60 1225.41 263.38 1213.00 261.99 C 1210.28 261.69 1207.09 260.73 1206.07 257.90 C 1205.24 254.32 1205.71 250.60 1205.60 246.96 C 1205.71 244.60 1205.34 241.84 1207.06 239.93 C 1208.77 237.98 1211.60 238.05 1213.98 237.98 C 1226.07 238.01 1238.15 238.00 1250.24 238.00 C 1250.30 225.31 1250.14 212.63 1250.30 199.95 C 1250.20 196.92 1252.37 194.14 1255.32 193.46 Z" />
<path fill="#8ec63f" opacity="1.00" d=" M 833.41 244.41 C 850.48 235.73 870.25 233.94 889.10 235.57 C 906.89 237.01 924.70 243.68 937.58 256.34 C 950.01 268.43 957.06 285.09 960.03 301.97 C 962.62 315.85 961.89 330.03 962.02 344.07 C 961.91 346.80 961.97 349.92 959.98 352.06 C 958.22 354.00 955.38 353.96 952.98 354.06 C 910.69 354.04 868.39 354.05 826.10 354.05 C 825.94 370.51 826.59 388.14 835.46 402.57 C 843.80 415.79 859.96 421.49 874.98 421.88 C 899.32 422.21 923.67 421.06 947.92 419.03 C 950.82 418.79 955.39 419.41 955.61 423.11 C 955.94 427.76 955.74 432.44 955.73 437.10 C 955.73 439.81 954.96 442.97 952.32 444.29 C 948.83 446.04 944.83 446.22 941.06 446.94 C 919.57 450.47 897.77 452.26 875.99 451.95 C 858.15 451.20 839.62 447.63 824.83 437.05 C 810.90 427.40 801.62 412.22 796.71 396.22 C 790.38 375.06 792.46 352.76 792.08 331.00 C 791.76 313.85 793.42 296.27 800.42 280.43 C 807.01 265.23 818.51 251.92 833.41 244.41 M 837.97 280.99 C 827.47 294.11 825.87 311.80 826.09 328.00 C 859.98 328.00 893.87 328.01 927.76 327.99 C 927.68 312.33 926.92 295.45 917.93 282.01 C 909.11 269.28 892.75 264.81 877.98 265.03 C 863.29 264.63 847.47 269.16 837.97 280.99 Z" />
<path fill="#8ec63f" opacity="1.00" d=" M 1041.85 253.10 C 1057.10 244.71 1073.36 237.15 1090.93 235.63 C 1107.15 234.08 1124.43 235.08 1139.00 243.05 C 1149.21 248.57 1156.71 258.10 1161.35 268.61 C 1167.95 283.43 1169.67 299.87 1169.67 315.94 C 1169.70 357.32 1169.67 398.70 1169.68 440.07 C 1169.75 442.63 1169.06 445.34 1167.01 447.04 C 1164.64 449.39 1161.07 449.02 1158.03 449.08 C 1153.00 448.93 1147.96 449.28 1142.94 448.91 C 1139.10 448.58 1135.85 444.98 1135.98 441.11 C 1135.91 401.72 1135.97 362.33 1135.95 322.94 C 1135.88 309.64 1136.30 295.72 1130.78 283.30 C 1127.21 275.09 1119.50 269.17 1110.89 267.05 C 1099.22 264.09 1086.81 264.47 1075.15 267.28 C 1063.62 270.23 1052.58 274.84 1041.84 279.91 C 1041.83 333.30 1041.84 386.69 1041.83 440.08 C 1041.89 442.64 1041.18 445.36 1039.14 447.06 C 1036.70 449.44 1033.06 449.00 1029.96 449.08 C 1024.63 448.88 1019.29 449.39 1013.99 448.80 C 1010.04 448.08 1007.72 443.88 1008.08 440.08 C 1008.12 375.35 1008.05 310.63 1008.11 245.90 C 1007.98 242.11 1010.96 238.24 1014.88 238.09 C 1020.23 237.81 1025.59 238.11 1030.95 237.97 C 1033.96 237.99 1037.61 237.67 1039.74 240.30 C 1042.80 243.81 1041.59 248.85 1041.85 253.10 Z" />
</g>
<g id="#555555ff">
<path fill="#555555" opacity="1.00" d=" M 616.29 497.25 C 619.82 496.01 623.05 499.62 622.66 503.03 C 622.97 506.95 619.02 510.75 615.10 509.13 C 610.45 506.77 611.28 498.68 616.29 497.25 Z" />
<path fill="#555555" opacity="1.00" d=" M 917.22 497.28 C 920.39 496.08 923.64 499.00 923.63 502.19 C 924.25 505.99 921.06 510.35 916.92 509.36 C 911.45 507.89 911.96 498.77 917.22 497.28 Z" />
<path fill="#555555" opacity="1.00" d=" M 995.23 497.28 C 998.75 495.96 1002.03 499.56 1001.66 502.99 C 1002.00 506.94 998.01 510.77 994.08 509.12 C 989.48 506.75 990.28 498.76 995.23 497.28 Z" />
<path fill="#555555" opacity="1.00" d=" M 29.82 527.88 C 37.11 519.03 50.26 515.28 60.82 520.31 C 60.02 522.83 59.22 525.36 58.42 527.89 C 52.81 525.39 45.90 525.18 40.71 528.80 C 32.64 534.28 28.85 544.50 29.02 553.99 C 28.96 559.10 31.02 564.97 36.08 567.08 C 41.57 569.26 47.70 567.59 52.80 565.12 C 53.02 567.68 53.26 570.25 53.50 572.82 C 46.42 575.89 37.94 577.51 30.66 574.17 C 24.74 571.44 21.38 565.08 20.60 558.83 C 19.35 547.86 22.56 536.28 29.82 527.88 Z" />
<path fill="#555555" opacity="1.00" d=" M 89.33 519.35 C 93.77 517.43 99.52 517.33 103.27 520.74 C 106.00 523.14 106.69 526.88 107.35 530.27 C 110.59 524.37 116.04 519.22 122.93 518.26 C 127.66 517.21 132.98 519.31 135.33 523.62 C 138.32 528.82 137.45 535.11 136.85 540.80 C 135.02 552.21 133.10 563.60 131.20 575.00 C 128.44 574.99 125.68 575.00 122.92 575.00 C 124.79 563.93 126.65 552.85 128.49 541.77 C 128.97 537.65 129.64 533.14 127.75 529.27 C 125.49 525.04 119.36 525.27 115.96 527.93 C 108.94 533.03 106.35 541.95 105.24 550.16 C 103.87 558.44 102.45 566.72 101.06 575.00 C 98.34 574.99 95.61 575.00 92.89 575.00 C 94.79 563.96 96.65 552.91 98.50 541.87 C 98.95 537.69 99.69 533.13 97.81 529.21 C 95.72 525.21 89.97 525.24 86.70 527.70 C 78.46 533.50 75.88 543.99 74.73 553.45 C 73.55 560.63 72.37 567.82 71.17 575.00 C 68.41 574.99 65.66 575.00 62.91 575.00 C 65.93 556.34 69.53 537.77 71.85 519.00 C 74.33 519.00 76.81 519.00 79.29 519.00 C 78.79 522.71 78.34 526.43 77.91 530.15 C 80.81 525.75 84.32 521.39 89.33 519.35 Z" />
<path fill="#555555" opacity="1.00" d=" M 168.44 518.67 C 174.53 517.17 181.57 518.31 186.19 522.76 C 191.08 527.43 192.90 534.43 192.97 541.00 C 192.89 551.22 189.32 561.70 181.98 568.98 C 176.39 574.60 167.80 577.44 160.07 575.18 C 154.78 573.76 150.58 569.54 148.49 564.57 C 145.17 556.59 145.97 547.46 148.51 539.37 C 151.57 530.02 158.47 521.03 168.44 518.67 M 168.33 526.38 C 161.11 529.58 157.51 537.49 155.83 544.78 C 154.67 550.91 154.23 557.83 157.61 563.37 C 159.69 566.91 163.94 569.07 168.04 568.41 C 172.61 567.72 176.20 564.32 178.63 560.59 C 182.37 554.80 184.21 547.87 184.28 541.00 C 184.19 536.43 183.16 531.45 179.72 528.17 C 176.76 525.29 172.05 524.79 168.33 526.38 Z" />
<path fill="#555555" opacity="1.00" d=" M 296.39 518.67 C 302.97 517.33 309.75 518.34 316.15 520.12 C 313.27 538.33 308.69 556.45 308.98 575.00 C 306.31 574.99 303.63 574.99 300.96 575.00 C 301.27 569.96 301.72 564.94 302.19 559.92 C 299.58 565.08 296.44 570.34 291.39 573.46 C 286.63 576.44 280.03 577.12 275.26 573.80 C 270.85 570.72 268.81 565.25 268.42 560.05 C 267.78 549.78 270.81 539.25 277.01 531.02 C 281.73 524.77 288.66 520.13 296.39 518.67 M 291.33 528.20 C 281.45 534.39 276.40 546.67 277.10 558.07 C 277.25 562.22 279.29 567.29 283.92 567.94 C 289.56 568.86 294.14 564.38 297.11 560.14 C 304.11 550.22 304.29 537.66 306.64 526.18 C 301.50 524.97 295.86 525.31 291.33 528.20 Z" />
<path fill="#555555" opacity="1.00" d=" M 348.18 519.02 C 352.63 517.33 358.33 517.58 361.76 521.23 C 364.13 523.64 364.71 527.09 365.35 530.27 C 368.58 524.37 374.03 519.23 380.91 518.26 C 385.65 517.21 390.98 519.31 393.34 523.63 C 396.31 528.81 395.45 535.08 394.85 540.75 C 393.03 552.18 391.10 563.58 389.20 575.00 C 386.44 574.99 383.68 575.00 380.92 575.00 C 382.78 564.03 384.61 553.05 386.45 542.08 C 386.95 537.85 387.69 533.20 385.72 529.23 C 383.61 525.27 377.94 525.24 374.58 527.52 C 368.39 531.59 365.29 538.93 363.97 545.97 C 362.29 555.64 360.70 565.32 359.06 575.00 C 356.33 574.99 353.61 574.99 350.89 575.00 C 352.79 563.95 354.65 552.89 356.50 541.84 C 356.95 537.66 357.69 533.09 355.79 529.17 C 353.70 525.23 348.01 525.25 344.75 527.67 C 336.45 533.47 333.87 544.03 332.71 553.53 C 331.54 560.69 330.37 567.84 329.17 575.00 C 326.41 574.99 323.66 575.00 320.90 575.00 C 323.93 556.34 327.53 537.77 329.85 519.00 C 332.32 519.00 334.80 519.00 337.29 519.00 C 336.79 522.71 336.34 526.43 335.91 530.15 C 338.95 525.50 342.76 520.90 348.18 519.02 Z" />
<path fill="#555555" opacity="1.00" d=" M 426.46 518.67 C 432.56 517.17 439.60 518.32 444.22 522.78 C 449.09 527.46 450.90 534.45 450.97 541.01 C 450.89 551.24 447.31 561.73 439.96 569.01 C 434.30 574.68 425.60 577.48 417.82 575.12 C 411.85 573.40 407.44 568.19 405.66 562.38 C 403.27 554.40 404.24 545.70 407.01 537.95 C 410.25 529.16 417.00 520.88 426.46 518.67 M 426.31 526.39 C 419.11 529.59 415.51 537.49 413.83 544.76 C 412.67 550.91 412.23 557.87 415.65 563.42 C 417.74 566.94 421.97 569.07 426.05 568.41 C 430.61 567.72 434.18 564.33 436.61 560.61 C 440.37 554.81 442.21 547.87 442.28 541.00 C 442.19 536.46 441.17 531.53 437.80 528.25 C 434.84 525.30 430.07 524.78 426.31 526.39 Z" />
<path fill="#555555" opacity="1.00" d=" M 532.46 518.67 C 538.54 517.18 545.57 518.31 550.20 522.77 C 555.09 527.45 556.91 534.47 556.97 541.07 C 556.88 551.26 553.31 561.71 545.99 568.98 C 540.36 574.64 531.70 577.46 523.93 575.14 C 518.18 573.54 513.82 568.68 511.93 563.15 C 509.17 555.00 510.17 545.96 513.00 537.98 C 516.24 529.18 522.99 520.89 532.46 518.67 M 532.34 526.38 C 524.89 529.69 521.29 537.94 519.68 545.47 C 518.68 551.42 518.33 558.10 521.66 563.43 C 523.89 567.22 528.64 569.35 532.94 568.23 C 537.11 567.26 540.34 564.07 542.62 560.59 C 546.37 554.80 548.22 547.87 548.28 541.00 C 548.19 536.45 547.17 531.53 543.80 528.24 C 540.84 525.31 536.09 524.78 532.34 526.38 Z" />
<path fill="#555555" opacity="1.00" d=" M 569.85 521.75 C 575.90 518.28 583.77 516.42 590.24 519.83 C 597.43 524.01 597.98 534.94 593.02 541.05 C 587.67 547.79 578.53 549.50 572.51 555.40 C 569.12 558.55 568.88 565.28 573.30 567.61 C 578.56 570.06 584.30 567.26 589.04 564.87 C 589.50 567.16 589.99 569.45 590.46 571.74 C 583.75 575.52 575.11 577.81 567.87 574.13 C 560.21 570.02 559.52 558.78 564.18 552.17 C 569.42 544.90 578.90 543.13 585.39 537.39 C 588.58 534.78 589.11 529.00 585.41 526.63 C 580.85 524.06 575.58 526.28 571.26 528.27 C 570.80 526.09 570.33 523.92 569.85 521.75 Z" />
<path fill="#555555" opacity="1.00" d=" M 755.38 519.42 C 762.80 517.11 770.79 518.02 778.15 520.12 C 775.27 538.33 770.68 556.45 770.98 575.00 C 768.30 574.99 765.63 574.99 762.96 575.00 C 763.27 569.98 763.72 564.97 764.18 559.97 C 761.65 564.89 758.71 569.89 754.02 573.05 C 749.16 576.39 742.18 577.27 737.18 573.75 C 732.23 570.21 730.35 563.81 730.32 557.98 C 730.03 541.85 739.20 524.27 755.38 519.42 M 745.12 536.13 C 740.45 543.07 738.14 551.72 739.34 560.05 C 739.83 563.61 742.10 567.48 745.99 567.95 C 751.60 568.82 756.16 564.36 759.11 560.14 C 766.11 550.23 766.28 537.68 768.64 526.22 C 759.54 523.45 749.99 528.41 745.12 536.13 Z" />
<path fill="#555555" opacity="1.00" d=" M 1078.41 518.67 C 1084.98 517.33 1091.76 518.34 1098.15 520.12 C 1095.27 538.33 1090.69 556.45 1090.98 575.00 C 1088.30 574.99 1085.63 574.99 1082.96 575.00 C 1083.27 569.98 1083.72 564.96 1084.18 559.96 C 1081.66 564.88 1078.71 569.88 1074.03 573.04 C 1069.40 576.21 1062.89 577.21 1057.92 574.22 C 1053.08 571.29 1050.81 565.51 1050.42 560.07 C 1049.78 550.01 1052.68 539.71 1058.62 531.54 C 1063.35 525.04 1070.45 520.16 1078.41 518.67 M 1071.45 529.45 C 1062.57 536.29 1058.11 548.10 1059.20 559.13 C 1059.53 562.97 1061.71 567.38 1065.94 567.94 C 1071.84 568.86 1076.52 564.02 1079.52 559.55 C 1086.14 549.71 1086.30 537.47 1088.64 526.23 C 1082.77 524.66 1076.26 525.65 1071.45 529.45 Z" />
<path fill="#555555" opacity="1.00" d=" M 211.28 519.10 C 214.77 519.07 218.25 519.07 221.74 519.10 C 223.70 533.83 225.99 548.52 227.57 563.30 C 234.18 548.29 241.77 533.74 249.12 519.08 C 252.64 519.08 256.16 519.08 259.69 519.08 C 257.67 537.72 255.56 556.36 253.47 575.00 C 250.83 574.99 248.19 574.99 245.55 575.00 C 247.30 559.39 249.40 543.83 251.28 528.25 C 244.17 544.05 236.27 559.48 228.55 574.99 C 226.37 574.99 224.20 574.99 222.03 575.00 C 220.06 559.34 217.81 543.71 216.11 528.02 C 213.05 543.75 209.40 559.37 205.79 574.99 C 203.20 574.99 200.61 574.99 198.02 575.00 C 202.44 556.37 206.91 537.74 211.28 519.10 Z" />
<path fill="#555555" opacity="1.00" d=" M 471.55 519.01 C 482.69 518.99 493.84 519.00 504.98 519.00 C 501.82 537.66 498.69 556.32 495.56 574.99 C 492.77 574.99 489.98 575.00 487.20 575.00 C 489.80 558.92 492.57 542.86 495.13 526.76 C 489.51 526.75 483.89 526.76 478.28 526.76 C 476.00 538.86 474.89 551.40 469.82 562.76 C 466.77 569.69 460.44 575.77 452.55 576.15 C 452.28 573.55 452.01 570.96 451.77 568.38 C 459.23 567.55 463.05 560.32 464.90 553.86 C 468.17 542.47 469.30 530.61 471.55 519.01 Z" />
<path fill="#555555" opacity="1.00" d=" M 610.53 519.01 C 613.35 519.00 616.18 519.00 619.01 519.00 C 615.81 537.66 612.66 556.33 609.46 574.99 C 606.63 574.99 603.81 575.00 600.99 575.00 C 604.19 556.34 607.33 537.67 610.53 519.01 Z" />
<path fill="#555555" opacity="1.00" d=" M 631.64 519.01 C 634.42 519.00 637.21 519.00 640.00 519.00 C 638.92 525.67 637.39 532.29 636.76 539.04 C 636.49 542.18 637.18 546.09 640.36 547.58 C 646.24 550.16 652.80 547.18 657.43 543.39 C 658.67 535.25 660.10 527.14 661.39 519.01 C 664.17 519.00 666.95 518.99 669.75 519.00 C 666.64 537.67 663.50 556.34 660.32 575.00 C 657.53 574.99 654.75 575.00 651.97 575.00 C 653.36 567.06 654.71 559.11 656.09 551.16 C 649.82 555.69 641.06 557.76 633.91 554.10 C 629.25 551.64 627.67 545.90 628.07 540.98 C 628.74 533.58 630.42 526.32 631.64 519.01 Z" />
<path fill="#555555" opacity="1.00" d=" M 684.42 519.01 C 687.23 519.00 690.05 519.00 692.87 519.00 C 691.62 526.43 690.35 533.87 689.08 541.31 C 696.55 541.33 704.02 541.31 711.49 541.31 C 712.73 533.88 714.05 526.46 715.24 519.01 C 718.06 519.00 720.87 518.99 723.70 519.00 C 720.60 537.67 717.46 556.34 714.30 575.00 C 711.48 574.99 708.66 574.99 705.85 575.00 C 707.31 566.34 708.74 557.67 710.14 549.01 C 702.67 548.99 695.21 549.00 687.75 549.00 C 686.34 557.67 684.91 566.33 683.47 574.99 C 680.65 574.99 677.83 575.00 675.02 575.00 C 678.17 556.34 681.30 537.68 684.42 519.01 Z" />
<path fill="#555555" opacity="1.00" d=" M 811.29 519.02 C 814.05 519.00 816.80 518.99 819.57 519.00 C 818.20 527.46 816.68 535.89 815.38 544.37 C 816.80 543.97 818.16 543.28 819.06 542.06 C 825.61 534.35 832.18 526.66 838.78 519.00 C 842.16 519.00 845.55 519.00 848.95 519.00 C 840.96 527.58 832.99 536.18 824.97 544.72 C 827.57 546.09 830.18 547.72 831.63 550.39 C 836.07 557.94 836.94 566.88 839.96 575.01 C 837.22 574.99 834.48 574.99 831.75 575.00 C 829.00 567.81 828.34 559.66 823.74 553.29 C 821.58 550.26 817.67 549.99 814.28 549.88 C 812.86 558.25 811.46 566.62 810.06 575.00 C 807.30 574.99 804.53 574.99 801.78 575.00 C 804.98 556.34 808.17 537.69 811.29 519.02 Z" />
<path fill="#555555" opacity="1.00" d=" M 856.91 553.81 C 860.18 542.43 861.30 530.59 863.56 519.00 C 874.70 519.00 885.84 519.00 896.98 519.00 C 893.82 537.66 890.69 556.32 887.56 574.99 C 884.77 574.99 881.98 575.00 879.20 575.00 C 881.80 558.92 884.57 542.86 887.13 526.76 C 881.51 526.75 875.89 526.76 870.28 526.76 C 868.00 538.83 866.89 551.35 861.85 562.70 C 858.81 569.65 852.46 575.77 844.55 576.15 C 844.27 573.55 844.01 570.96 843.77 568.38 C 851.24 567.55 855.06 560.28 856.91 553.81 Z" />
<path fill="#555555" opacity="1.00" d=" M 911.53 519.01 C 914.35 519.00 917.18 519.00 920.01 519.00 C 916.81 537.66 913.66 556.33 910.46 574.99 C 907.63 574.99 904.80 575.00 901.99 575.00 C 905.19 556.34 908.33 537.67 911.53 519.01 Z" />
<path fill="#555555" opacity="1.00" d=" M 935.42 519.01 C 938.23 519.00 941.05 519.00 943.87 519.00 C 942.62 526.43 941.35 533.87 940.08 541.31 C 947.55 541.33 955.02 541.31 962.49 541.31 C 963.73 533.88 965.05 526.46 966.24 519.02 C 969.05 519.00 971.87 518.99 974.70 519.00 C 971.60 537.67 968.46 556.34 965.30 575.00 C 962.48 574.99 959.66 574.99 956.85 575.00 C 958.31 566.34 959.74 557.67 961.14 549.01 C 953.67 548.99 946.21 549.00 938.75 549.00 C 937.34 557.67 935.91 566.33 934.47 574.99 C 931.64 574.99 928.83 575.00 926.02 575.00 C 929.17 556.34 932.30 537.68 935.42 519.01 Z" />
<path fill="#555555" opacity="1.00" d=" M 989.52 519.01 C 992.35 519.00 995.18 519.00 998.01 519.00 C 994.81 537.66 991.66 556.33 988.46 574.99 C 985.63 574.99 982.80 575.00 979.99 575.00 C 983.19 556.34 986.33 537.67 989.52 519.01 Z" />
<path fill="#555555" opacity="1.00" d=" M 1012.29 519.02 C 1015.05 519.00 1017.80 518.99 1020.57 519.00 C 1019.20 527.46 1017.67 535.90 1016.38 544.37 C 1017.81 543.98 1019.16 543.26 1020.08 542.04 C 1026.62 534.33 1033.18 526.66 1039.77 519.00 C 1043.16 519.00 1046.55 519.00 1049.95 519.00 C 1041.96 527.58 1033.99 536.18 1025.97 544.72 C 1031.30 546.87 1034.17 552.14 1035.77 557.37 C 1037.69 563.19 1038.91 569.22 1040.96 575.01 C 1038.22 574.99 1035.48 574.99 1032.75 575.00 C 1030.88 569.76 1029.76 564.28 1027.83 559.07 C 1026.70 556.16 1025.29 553.11 1022.58 551.36 C 1020.43 549.93 1017.73 550.14 1015.28 549.88 C 1013.86 558.25 1012.46 566.62 1011.06 575.00 C 1008.29 574.99 1005.53 574.99 1002.78 575.00 C 1005.98 556.34 1009.17 537.69 1012.29 519.02 Z" />
</g>
</svg>
