<svg aria-hidden="true" style="position: absolute; width: 0; height: 0; overflow: hidden;" version="1.1" xmlns="http://www.w3.org/2000/svg" xmlns:xlink="http://www.w3.org/1999/xlink">
<defs>
<symbol id="icon-implants" viewBox="0 0 25 32">
<path d="M14.584 7.212h-0.103c-0.869-0.23-1.676-0.65-2.362-1.23-0.077-0.072-0.122-0.171-0.126-0.277s0.035-0.207 0.107-0.284c0.072-0.077 0.171-0.122 0.277-0.126s0.207 0.035 0.284 0.107c0.59 0.494 1.282 0.851 2.026 1.046 0.090 0.027 0.169 0.085 0.22 0.164s0.073 0.174 0.061 0.268c-0.012 0.093-0.058 0.179-0.128 0.242s-0.161 0.099-0.255 0.101v-0.011z"></path>
<path d="M15.527 18.222h-6.291c-0.934-0.005-1.835-0.344-2.54-0.956s-1.167-1.457-1.302-2.381l-0.607-4.259c-0.151-0.985-0.054-1.993 0.282-2.931 0.322-0.972 0.935-1.821 1.756-2.433s1.81-0.956 2.833-0.986c0.976 0.005 1.926 0.322 2.709 0.905 0.783-0.584 1.732-0.901 2.709-0.905 1.031 0.026 2.028 0.371 2.854 0.988s1.442 1.473 1.762 2.453c0.336 0.938 0.433 1.946 0.282 2.931l-0.607 4.259c-0.14 0.92-0.603 1.76-1.308 2.368s-1.603 0.944-2.534 0.948zM9.675 5.066c-0.862 0.032-1.694 0.327-2.383 0.846s-1.202 1.238-1.47 2.058c-0.288 0.817-0.368 1.691-0.233 2.547l0.602 4.259c0.109 0.735 0.477 1.407 1.039 1.894s1.279 0.757 2.022 0.761h6.274c0.744-0.004 1.461-0.273 2.022-0.761s0.93-1.159 1.039-1.894l0.602-4.259c0.135-0.855 0.055-1.73-0.233-2.547-0.268-0.821-0.782-1.54-1.472-2.059s-1.523-0.814-2.386-0.845c-0.901 0.005-1.772 0.332-2.454 0.921-0.072 0.058-0.162 0.090-0.255 0.090s-0.182-0.031-0.255-0.090c-0.684-0.59-1.557-0.917-2.46-0.921z"></path>
<path d="M12.39 27.671c-0.089 0-0.175-0.030-0.245-0.085s-0.119-0.132-0.14-0.219c-0.023-0.102-0.005-0.209 0.049-0.298s0.142-0.153 0.243-0.179l0.352-0.081-3.414-0.13c-0.096-0.004-0.187-0.042-0.257-0.108s-0.113-0.155-0.122-0.25c-0.007-0.095 0.020-0.189 0.075-0.266s0.136-0.132 0.228-0.156l3.49-0.845-3.408-0.141c-0.096-0.005-0.186-0.043-0.256-0.109s-0.113-0.154-0.124-0.249c-0.009-0.095 0.017-0.191 0.072-0.268s0.138-0.132 0.231-0.154l3.479-0.824-3.408-0.141c-0.092-0.008-0.179-0.047-0.245-0.112s-0.107-0.151-0.116-0.244c-0.009-0.092 0.015-0.185 0.067-0.261s0.13-0.132 0.219-0.158l3.484-0.824-3.408-0.141c-0.096-0.004-0.187-0.042-0.257-0.108s-0.113-0.154-0.122-0.249 0.016-0.191 0.072-0.268c0.056-0.078 0.138-0.133 0.231-0.155l3.479-0.824-3.408-0.141c-0.098 0.002-0.194-0.034-0.267-0.1s-0.119-0.157-0.128-0.255c-0.009-0.098 0.020-0.196 0.080-0.274s0.147-0.13 0.244-0.147l6.274-1.441c0.052-0.015 0.106-0.019 0.159-0.012s0.105 0.024 0.151 0.051c0.046 0.027 0.087 0.064 0.119 0.107s0.055 0.093 0.067 0.145c0.012 0.052 0.014 0.107 0.004 0.16s-0.030 0.103-0.059 0.148c-0.030 0.045-0.068 0.083-0.113 0.113s-0.096 0.049-0.148 0.059l-3.478 0.824 3.408 0.141c0.095 0.002 0.186 0.039 0.257 0.104s0.113 0.153 0.123 0.248c0.009 0.095-0.017 0.191-0.072 0.268s-0.138 0.132-0.231 0.154l-3.479 0.824 3.408 0.141c0.095 0.005 0.186 0.044 0.254 0.11s0.112 0.155 0.12 0.25c0.008 0.095-0.017 0.19-0.073 0.267s-0.138 0.132-0.231 0.154l-3.479 0.824 3.408 0.135c0.095 0.006 0.185 0.045 0.255 0.11s0.113 0.153 0.125 0.248c0.009 0.095-0.017 0.191-0.072 0.268s-0.138 0.132-0.231 0.154l-3.484 0.824 3.408 0.141c0.096 0.004 0.187 0.042 0.257 0.108s0.113 0.154 0.122 0.249-0.016 0.191-0.072 0.268c-0.056 0.078-0.138 0.133-0.231 0.155l-3.479 0.818 3.408 0.141c0.095 0.005 0.185 0.043 0.254 0.109s0.111 0.154 0.12 0.248c0.011 0.095-0.014 0.19-0.069 0.268s-0.137 0.133-0.229 0.155l-3.143 0.715c-0.031 0.009-0.065 0.013-0.097 0.011z"></path>
<path d="M18.155 25.315c-0.064 0.001-0.127-0.014-0.184-0.043s-0.105-0.072-0.142-0.125c-0.057-0.085-0.079-0.189-0.061-0.291s0.075-0.191 0.159-0.251l2.915-2c0.043-0.030 0.091-0.050 0.143-0.061s0.104-0.011 0.155-0.002 0.1 0.029 0.144 0.058c0.044 0.029 0.081 0.065 0.111 0.108s0.050 0.091 0.061 0.143c0.011 0.051 0.011 0.104 0.002 0.155s-0.029 0.1-0.058 0.144c-0.029 0.044-0.065 0.081-0.108 0.111l-2.915 1.994c-0.066 0.042-0.144 0.063-0.222 0.059z"></path>
<path d="M18.188 20.92c-0.084-0.001-0.166-0.028-0.233-0.078s-0.117-0.121-0.142-0.201c-0.025-0.080-0.023-0.166 0.004-0.246s0.080-0.148 0.148-0.196l2.915-2c0.042-0.035 0.091-0.061 0.145-0.077s0.109-0.019 0.163-0.011c0.055 0.008 0.107 0.027 0.154 0.056s0.087 0.068 0.118 0.113 0.052 0.097 0.062 0.151c0.010 0.054 0.009 0.11-0.004 0.163s-0.037 0.104-0.070 0.148c-0.033 0.044-0.075 0.080-0.124 0.107l-2.91 2c-0.067 0.047-0.146 0.071-0.227 0.071z"></path>
<path d="M6.63 25.315c-0.080 0-0.157-0.024-0.222-0.071l-2.91-2c-0.086-0.058-0.144-0.148-0.164-0.249s0.002-0.207 0.061-0.292c0.059-0.084 0.149-0.142 0.25-0.162s0.206 0.002 0.292 0.059l2.915 2c0.083 0.060 0.14 0.15 0.16 0.25s-0.001 0.205-0.056 0.292c-0.037 0.052-0.085 0.096-0.142 0.126s-0.119 0.046-0.184 0.048z"></path>
<path d="M6.598 20.92c-0.080 0.001-0.157-0.024-0.222-0.071l-2.915-2c-0.084-0.059-0.142-0.149-0.162-0.25s0.002-0.206 0.059-0.292c0.058-0.086 0.148-0.144 0.249-0.164s0.207 0.002 0.292 0.061l2.915 2c0.069 0.048 0.121 0.116 0.148 0.196s0.029 0.166 0.004 0.246c-0.025 0.080-0.074 0.151-0.142 0.201s-0.149 0.078-0.233 0.078l0.005-0.005z"></path>
</symbol>
<symbol id="icon-implants1" viewBox="0 0 25 32">
<path d="M14.584 7.212h-0.103c-0.869-0.23-1.676-0.65-2.362-1.23-0.077-0.072-0.122-0.171-0.126-0.277s0.035-0.207 0.107-0.284c0.072-0.077 0.171-0.122 0.277-0.126s0.207 0.035 0.284 0.107c0.59 0.494 1.282 0.851 2.026 1.046 0.090 0.027 0.169 0.085 0.22 0.164s0.073 0.174 0.061 0.268c-0.012 0.093-0.058 0.179-0.128 0.242s-0.161 0.099-0.255 0.101v-0.011z"></path>
<path d="M15.527 18.222h-6.291c-0.934-0.005-1.835-0.344-2.54-0.956s-1.167-1.457-1.302-2.381l-0.607-4.259c-0.151-0.985-0.054-1.993 0.282-2.931 0.322-0.972 0.935-1.821 1.756-2.433s1.81-0.956 2.833-0.986c0.976 0.005 1.926 0.322 2.709 0.905 0.783-0.584 1.732-0.901 2.709-0.905 1.031 0.026 2.028 0.371 2.854 0.988s1.442 1.473 1.762 2.453c0.336 0.938 0.433 1.946 0.282 2.931l-0.607 4.259c-0.14 0.92-0.603 1.76-1.308 2.368s-1.603 0.944-2.534 0.948zM9.675 5.066c-0.862 0.032-1.694 0.327-2.383 0.846s-1.202 1.238-1.47 2.058c-0.288 0.817-0.368 1.691-0.233 2.547l0.602 4.259c0.109 0.735 0.477 1.407 1.039 1.894s1.279 0.757 2.022 0.761h6.274c0.744-0.004 1.461-0.273 2.022-0.761s0.93-1.159 1.039-1.894l0.602-4.259c0.135-0.855 0.055-1.73-0.233-2.547-0.268-0.821-0.782-1.54-1.472-2.059s-1.523-0.814-2.386-0.845c-0.901 0.005-1.772 0.332-2.454 0.921-0.072 0.058-0.162 0.090-0.255 0.090s-0.182-0.031-0.255-0.090c-0.684-0.59-1.557-0.917-2.46-0.921z"></path>
<path d="M12.39 27.671c-0.089 0-0.175-0.030-0.245-0.085s-0.119-0.132-0.14-0.219c-0.023-0.102-0.005-0.209 0.049-0.298s0.142-0.153 0.243-0.179l0.352-0.081-3.414-0.13c-0.096-0.004-0.187-0.042-0.257-0.108s-0.113-0.155-0.122-0.25c-0.007-0.095 0.020-0.189 0.075-0.266s0.136-0.132 0.228-0.156l3.49-0.845-3.408-0.141c-0.096-0.005-0.186-0.043-0.256-0.109s-0.113-0.154-0.124-0.249c-0.009-0.095 0.017-0.191 0.072-0.268s0.138-0.132 0.231-0.154l3.479-0.824-3.408-0.141c-0.092-0.008-0.179-0.047-0.245-0.112s-0.107-0.151-0.116-0.244c-0.009-0.092 0.015-0.185 0.067-0.261s0.13-0.132 0.219-0.158l3.484-0.824-3.408-0.141c-0.096-0.004-0.187-0.042-0.257-0.108s-0.113-0.154-0.122-0.249 0.016-0.191 0.072-0.268c0.056-0.078 0.138-0.133 0.231-0.155l3.479-0.824-3.408-0.141c-0.098 0.002-0.194-0.034-0.267-0.1s-0.119-0.157-0.128-0.255c-0.009-0.098 0.020-0.196 0.080-0.274s0.147-0.13 0.244-0.147l6.274-1.441c0.052-0.015 0.106-0.019 0.159-0.012s0.105 0.024 0.151 0.051c0.046 0.027 0.087 0.064 0.119 0.107s0.055 0.093 0.067 0.145c0.012 0.052 0.014 0.107 0.004 0.16s-0.030 0.103-0.059 0.148c-0.030 0.045-0.068 0.083-0.113 0.113s-0.096 0.049-0.148 0.059l-3.478 0.824 3.408 0.141c0.095 0.002 0.186 0.039 0.257 0.104s0.113 0.153 0.123 0.248c0.009 0.095-0.017 0.191-0.072 0.268s-0.138 0.132-0.231 0.154l-3.479 0.824 3.408 0.141c0.095 0.005 0.186 0.044 0.254 0.11s0.112 0.155 0.12 0.25c0.008 0.095-0.017 0.19-0.073 0.267s-0.138 0.132-0.231 0.154l-3.479 0.824 3.408 0.135c0.095 0.006 0.185 0.045 0.255 0.11s0.113 0.153 0.125 0.248c0.009 0.095-0.017 0.191-0.072 0.268s-0.138 0.132-0.231 0.154l-3.484 0.824 3.408 0.141c0.096 0.004 0.187 0.042 0.257 0.108s0.113 0.154 0.122 0.249-0.016 0.191-0.072 0.268c-0.056 0.078-0.138 0.133-0.231 0.155l-3.479 0.818 3.408 0.141c0.095 0.005 0.185 0.043 0.254 0.109s0.111 0.154 0.12 0.248c0.011 0.095-0.014 0.19-0.069 0.268s-0.137 0.133-0.229 0.155l-3.143 0.715c-0.031 0.009-0.065 0.013-0.097 0.011z"></path>
<path d="M18.155 25.315c-0.064 0.001-0.127-0.014-0.184-0.043s-0.105-0.072-0.142-0.125c-0.057-0.085-0.079-0.189-0.061-0.291s0.075-0.191 0.159-0.251l2.915-2c0.043-0.030 0.091-0.050 0.143-0.061s0.104-0.011 0.155-0.002 0.1 0.029 0.144 0.058c0.044 0.029 0.081 0.065 0.111 0.108s0.050 0.091 0.061 0.143c0.011 0.051 0.011 0.104 0.002 0.155s-0.029 0.1-0.058 0.144c-0.029 0.044-0.065 0.081-0.108 0.111l-2.915 1.994c-0.066 0.042-0.144 0.063-0.222 0.059z"></path>
<path d="M18.188 20.92c-0.084-0.001-0.166-0.028-0.233-0.078s-0.117-0.121-0.142-0.201c-0.025-0.080-0.023-0.166 0.004-0.246s0.080-0.148 0.148-0.196l2.915-2c0.042-0.035 0.091-0.061 0.145-0.077s0.109-0.019 0.163-0.011c0.055 0.008 0.107 0.027 0.154 0.056s0.087 0.068 0.118 0.113 0.052 0.097 0.062 0.151c0.010 0.054 0.009 0.11-0.004 0.163s-0.037 0.104-0.070 0.148c-0.033 0.044-0.075 0.080-0.124 0.107l-2.91 2c-0.067 0.047-0.146 0.071-0.227 0.071z"></path>
<path d="M6.63 25.315c-0.080 0-0.157-0.024-0.222-0.071l-2.91-2c-0.086-0.058-0.144-0.148-0.164-0.249s0.002-0.207 0.061-0.292c0.059-0.084 0.149-0.142 0.25-0.162s0.206 0.002 0.292 0.059l2.915 2c0.083 0.060 0.14 0.15 0.16 0.25s-0.001 0.205-0.056 0.292c-0.037 0.052-0.085 0.096-0.142 0.126s-0.119 0.046-0.184 0.048z"></path>
<path d="M6.598 20.92c-0.080 0.001-0.157-0.024-0.222-0.071l-2.915-2c-0.084-0.059-0.142-0.149-0.162-0.25s0.002-0.206 0.059-0.292c0.058-0.086 0.148-0.144 0.249-0.164s0.207 0.002 0.292 0.061l2.915 2c0.069 0.048 0.121 0.116 0.148 0.196s0.029 0.166 0.004 0.246c-0.025 0.080-0.074 0.151-0.142 0.201s-0.149 0.078-0.233 0.078l0.005-0.005z"></path>
</symbol>
<symbol id="icon-surgery" viewBox="0 0 31 32">
<path d="M22.626 11.244c-0.091 0.001-0.181-0.023-0.26-0.068-0.805-0.482-1.492-1.136-2.012-1.916-0.033-0.057-0.055-0.119-0.064-0.184s-0.005-0.131 0.011-0.195c0.017-0.064 0.045-0.123 0.085-0.176s0.089-0.096 0.146-0.13c0.056-0.035 0.118-0.059 0.183-0.070s0.132-0.008 0.196 0.008c0.064 0.016 0.124 0.045 0.177 0.085s0.096 0.090 0.129 0.148c0.439 0.639 1.011 1.176 1.677 1.574 0.112 0.069 0.192 0.18 0.223 0.308s0.010 0.263-0.059 0.376c-0.043 0.075-0.106 0.137-0.182 0.18s-0.162 0.063-0.249 0.060z"></path>
<path d="M19.607 27.26c-0.285-0.003-0.564-0.083-0.808-0.233-0.318-0.215-0.557-0.528-0.681-0.891s-0.125-0.757-0.004-1.121l0.582-2.053c0.171-0.551 0.132-1.146-0.11-1.67-0.102-0.228-0.252-0.43-0.44-0.595s-0.409-0.286-0.648-0.357c-0.241-0.066-0.493-0.080-0.74-0.041s-0.482 0.13-0.691 0.267c-0.486 0.319-0.837 0.807-0.986 1.369l-0.582 2.053c-0.093 0.373-0.306 0.705-0.607 0.945s-0.672 0.374-1.056 0.382c-0.35-0.001-0.689-0.12-0.964-0.337s-0.468-0.52-0.549-0.861c-1.574-5.626 0.507-12.929 0.595-13.237 0.89-3.080 3.853-4.935 6.612-4.107 0.96 0.279 1.808 0.854 2.423 1.643 0.942-0.339 1.966-0.375 2.929-0.103 0.675 0.201 1.299 0.545 1.831 1.008s0.957 1.034 1.249 1.675c0.629 1.363 0.738 2.908 0.308 4.346-0.089 0.308-2.211 7.597-6.536 11.519-0.313 0.27-0.716 0.412-1.129 0.397zM17.020 19.293c0.248-0 0.494 0.035 0.732 0.103 0.375 0.112 0.722 0.303 1.018 0.56s0.532 0.575 0.694 0.932c0.35 0.74 0.413 1.584 0.178 2.368l-0.589 2.053c-0.060 0.158-0.065 0.331-0.015 0.492s0.151 0.301 0.289 0.398c0.11 0.059 0.237 0.080 0.361 0.060s0.237-0.079 0.324-0.17c4.107-3.737 6.228-10.951 6.249-11.054 0.363-1.204 0.273-2.499-0.253-3.641-0.23-0.514-0.569-0.972-0.993-1.343s-0.923-0.646-1.464-0.806c-0.87-0.245-1.798-0.175-2.621 0.198-0.107 0.046-0.227 0.053-0.34 0.021s-0.21-0.103-0.276-0.199c-0.484-0.756-1.218-1.318-2.074-1.588-2.231-0.643-4.641 0.91-5.38 3.463 0 0.068-2.053 7.337-0.595 12.69 0.025 0.13 0.093 0.248 0.194 0.334s0.228 0.135 0.36 0.139c0.164-0.014 0.32-0.081 0.443-0.191s0.208-0.256 0.241-0.418l0.582-2.053c0.22-0.79 0.722-1.471 1.41-1.916 0.464-0.288 1.001-0.438 1.547-0.431h-0.021z"></path>
<path d="M16.432 31.709c-1.56 0.026-3.095-0.396-4.422-1.216s-2.391-2.004-3.066-3.411c-0.308-0.724-0.819-1.342-1.471-1.781s-1.418-0.678-2.204-0.69h-2.594c-0.070 0.008-0.141 0.002-0.208-0.020s-0.129-0.056-0.182-0.103-0.095-0.104-0.124-0.169c-0.029-0.064-0.044-0.134-0.044-0.205s0.015-0.14 0.044-0.205c0.029-0.064 0.071-0.122 0.124-0.169s0.115-0.082 0.182-0.103c0.067-0.021 0.138-0.028 0.208-0.020h2.594c0.978 0.009 1.932 0.303 2.746 0.845s1.453 1.309 1.839 2.208c0.617 1.214 1.558 2.234 2.719 2.946s2.496 1.089 3.858 1.089 2.697-0.377 3.858-1.089c1.161-0.712 2.102-1.732 2.719-2.946 0.385-0.899 1.024-1.667 1.839-2.209s1.769-0.835 2.747-0.844h2.594c0.070-0.008 0.141-0.002 0.208 0.020s0.129 0.056 0.182 0.103 0.095 0.104 0.124 0.169c0.029 0.064 0.044 0.134 0.044 0.205s-0.015 0.14-0.044 0.205c-0.029 0.064-0.071 0.122-0.124 0.169s-0.115 0.082-0.182 0.103c-0.067 0.021-0.138 0.028-0.208 0.020h-2.594c-0.786 0.016-1.551 0.258-2.203 0.696s-1.166 1.054-1.479 1.775c-0.673 1.407-1.735 2.591-3.062 3.411s-2.86 1.242-4.419 1.216z"></path>
<path d="M4.604 14.502c-0.512-0.001-1.008-0.178-1.405-0.502s-0.669-0.775-0.772-1.277l-2.389-11.834c-0.016-0.066-0.018-0.134-0.006-0.201s0.038-0.13 0.076-0.186c0.038-0.056 0.087-0.104 0.145-0.139s0.122-0.059 0.189-0.069c0.064-0.014 0.131-0.015 0.196-0.003s0.126 0.037 0.181 0.074c0.055 0.036 0.102 0.083 0.138 0.138s0.061 0.116 0.074 0.181l2.389 11.827c0.064 0.317 0.252 0.596 0.521 0.776s0.599 0.245 0.916 0.183c0.319-0.067 0.599-0.256 0.78-0.527 0.177-0.271 0.241-0.6 0.178-0.917l-1.506-7.358c-0.017-0.126 0.015-0.254 0.090-0.357s0.185-0.174 0.31-0.199c0.125-0.024 0.254-0 0.362 0.067s0.185 0.174 0.218 0.297l1.492 7.371c0.058 0.285 0.058 0.579 0.002 0.864s-0.169 0.557-0.331 0.799c-0.326 0.49-0.833 0.832-1.41 0.951-0.144 0.027-0.291 0.041-0.438 0.041z"></path>
<path d="M10.066 23.886c-0.061 0.010-0.124 0.010-0.185 0l-5.421-2.197c-0.064-0.026-0.121-0.065-0.169-0.114s-0.085-0.108-0.11-0.172c-0.024-0.064-0.035-0.133-0.032-0.201s0.021-0.136 0.051-0.197l1.157-2.457-0.903-4.456c-0.026-0.13 0-0.265 0.073-0.375s0.187-0.187 0.317-0.214c0.064-0.014 0.131-0.015 0.195-0.003s0.126 0.037 0.181 0.074c0.055 0.036 0.102 0.083 0.138 0.138s0.061 0.116 0.074 0.181l0.938 4.613c0.021 0.107 0.007 0.217-0.041 0.315l-0.999 2.129 4.921 1.999c0.065 0.024 0.125 0.061 0.176 0.109s0.090 0.106 0.116 0.171 0.039 0.134 0.037 0.203c-0.002 0.070-0.018 0.138-0.048 0.201-0.047 0.081-0.115 0.148-0.197 0.192s-0.175 0.066-0.268 0.061z"></path>
<path d="M15.87 13.674c-0.1 0.001-0.199-0.028-0.282-0.085s-0.147-0.137-0.183-0.23l-0.554-1.431c-0.041-0.113-0.041-0.236 0-0.349l0.493-1.369-1.027-2.224c-0.035-0.060-0.056-0.127-0.064-0.196s-0-0.139 0.021-0.205c0.021-0.066 0.056-0.127 0.101-0.179s0.102-0.094 0.165-0.123c0.063-0.029 0.131-0.045 0.201-0.046s0.138 0.012 0.202 0.039c0.064 0.027 0.122 0.067 0.169 0.117s0.084 0.11 0.108 0.175l1.116 2.402c0.048 0.121 0.048 0.256 0 0.376l-0.5 1.41 0.493 1.225c0.046 0.124 0.042 0.26-0.010 0.381s-0.149 0.217-0.27 0.269c-0.057 0.023-0.117 0.037-0.178 0.041z"></path>
<path d="M17.089 11.073c-0.050 0.007-0.101 0.007-0.151 0l-1.218-0.383c-0.126-0.041-0.232-0.13-0.293-0.248s-0.074-0.255-0.035-0.382c0.019-0.063 0.051-0.122 0.094-0.172s0.094-0.092 0.153-0.122c0.059-0.030 0.123-0.048 0.189-0.053s0.132 0.004 0.194 0.025l1.218 0.383c0.111 0.038 0.205 0.114 0.265 0.214s0.084 0.219 0.066 0.335c-0.018 0.116-0.076 0.222-0.164 0.299s-0.2 0.121-0.318 0.124v-0.021z"></path>
</symbol>
<symbol id="icon-crowns" viewBox="0 0 32 32">
<path d="M19.478 4.596h-0.138c-1.361-0.355-2.624-1.011-3.696-1.921-0.056-0.046-0.101-0.104-0.134-0.168s-0.052-0.135-0.056-0.208c-0.004-0.072 0.006-0.145 0.031-0.213s0.063-0.131 0.113-0.183 0.11-0.095 0.176-0.123c0.067-0.029 0.138-0.043 0.211-0.043s0.144 0.015 0.211 0.044c0.066 0.029 0.126 0.071 0.176 0.124 0.946 0.78 2.051 1.343 3.238 1.652 0.122 0.036 0.226 0.114 0.295 0.22s0.098 0.234 0.081 0.359c-0.017 0.126-0.078 0.241-0.172 0.326s-0.216 0.133-0.342 0.135h0.007z"></path>
<path d="M27.403 12.229h-0.036c-0.14-0.011-0.269-0.077-0.361-0.183s-0.137-0.244-0.127-0.384c0.124-1.703 0.124-2.801 0.124-2.816 0-4.213-3.012-7.647-6.709-7.647-1.446 0.002-2.844 0.518-3.944 1.455-0.097 0.078-0.218 0.12-0.342 0.12s-0.245-0.042-0.342-0.12c-1.1-0.938-2.498-1.454-3.944-1.455-3.696 0-6.709 3.434-6.709 7.647 0 0 0 1.048 0.116 2.678 0.012 0.073 0.009 0.148-0.010 0.219s-0.052 0.139-0.098 0.197-0.103 0.106-0.169 0.14c-0.065 0.034-0.137 0.055-0.211 0.060s-0.148-0.005-0.217-0.030c-0.070-0.025-0.133-0.065-0.187-0.116s-0.096-0.113-0.124-0.181c-0.028-0.068-0.042-0.142-0.040-0.216-0.124-1.666-0.124-2.707-0.124-2.751 0-4.802 3.485-8.732 7.771-8.732 1.549 0.004 3.054 0.515 4.286 1.455 1.231-0.94 2.737-1.451 4.286-1.455 4.286 0 7.771 3.9 7.771 8.732 0 0.044 0 1.142-0.131 2.911-0.016 0.13-0.079 0.25-0.176 0.337s-0.224 0.136-0.355 0.136z"></path>
<path d="M21.451 31.875c-0.197-0.002-0.392-0.029-0.582-0.080-0.516-0.162-0.965-0.489-1.278-0.93s-0.472-0.974-0.454-1.514v-3.253c0-1.994-1.404-3.638-3.129-3.638s-3.129 1.615-3.129 3.638v3.253c0.018 0.54-0.141 1.070-0.452 1.512s-0.758 0.769-1.272 0.933c-0.47 0.129-0.969 0.098-1.419-0.089s-0.824-0.519-1.063-0.944c-2.576-4.169-3.733-9.634-4.242-13.476-0.012-0.074-0.007-0.15 0.015-0.221s0.059-0.138 0.109-0.193c0.050-0.057 0.111-0.103 0.18-0.134s0.144-0.048 0.22-0.048h22.106c0.076 0 0.151 0.016 0.22 0.048s0.131 0.077 0.18 0.134c0.061 0.057 0.107 0.128 0.133 0.206s0.033 0.163 0.020 0.245c-0.509 3.849-1.666 9.307-4.242 13.476-0.199 0.331-0.481 0.605-0.817 0.794s-0.717 0.287-1.103 0.283zM16.008 21.427c2.314 0 4.191 2.096 4.191 4.671v3.253c-0.030 0.315 0.047 0.631 0.221 0.895s0.432 0.462 0.732 0.56c0.246 0.069 0.509 0.051 0.743-0.051s0.427-0.282 0.544-0.509c2.35-3.806 3.471-8.732 4.009-12.464h-20.883c0.538 3.696 1.659 8.659 4.009 12.465 0.118 0.227 0.31 0.407 0.544 0.509s0.497 0.12 0.743 0.051c0.301-0.098 0.559-0.295 0.732-0.56s0.251-0.58 0.221-0.895v-3.253c0-2.561 1.877-4.657 4.191-4.657v-0.015z"></path>
<path d="M21.916 14.98c-0.101-0-0.2-0.029-0.285-0.083s-0.153-0.131-0.196-0.223c-0.484-1.031-1.251-1.903-2.212-2.514s-2.077-0.935-3.216-0.935c-1.139 0-2.254 0.324-3.216 0.935s-1.729 1.483-2.212 2.514c-0.051 0.105-0.134 0.191-0.238 0.245s-0.222 0.072-0.337 0.053c-2.219-0.4-5.938-1.368-5.938-3.405 0-2.561 6.010-3.9 11.941-3.9s11.941 1.339 11.941 3.9c0 2.037-3.718 3.005-5.938 3.405l-0.095 0.007zM16.008 10.163c1.269 0.004 2.514 0.348 3.604 0.997s1.987 1.579 2.595 2.692c3.223-0.626 4.679-1.623 4.679-2.285 0-1.186-4.14-2.838-10.878-2.838s-10.915 1.652-10.915 2.838c0 0.669 1.455 1.659 4.679 2.285 0.611-1.119 1.513-2.052 2.611-2.702s2.35-0.99 3.625-0.987z"></path>
<path d="M22.52 17.759h-13.098c-0.139 0-0.272-0.055-0.37-0.153s-0.153-0.232-0.153-0.37c0-0.928 0.183-1.847 0.538-2.704s0.876-1.636 1.532-2.292c0.656-0.656 1.435-1.177 2.292-1.532s1.776-0.538 2.704-0.538 1.847 0.183 2.704 0.538c0.857 0.355 1.636 0.876 2.292 1.532s1.177 1.435 1.532 2.292 0.538 1.776 0.538 2.704c0 0.137-0.053 0.268-0.148 0.365s-0.225 0.155-0.361 0.159zM9.99 16.704h11.97c-0.138-1.492-0.828-2.879-1.935-3.888s-2.551-1.569-4.050-1.569-2.943 0.56-4.050 1.569c-1.107 1.010-1.797 2.396-1.935 3.888z"></path>
<path d="M27.752 14.98c-0.084-0.001-0.168-0.021-0.243-0.059s-0.142-0.092-0.193-0.159c-0.078-0.114-0.108-0.253-0.085-0.389s0.098-0.257 0.209-0.339l1.754-1.259c0.114-0.068 0.25-0.090 0.38-0.063s0.245 0.102 0.323 0.21c0.078 0.108 0.112 0.241 0.097 0.372s-0.080 0.253-0.18 0.34l-1.754 1.259c-0.091 0.059-0.197 0.089-0.306 0.087z"></path>
<path d="M29.498 16.901c-0.104 0-0.205-0.030-0.291-0.087l-0.669-0.444c-0.106-0.083-0.176-0.202-0.198-0.335s0.008-0.268 0.083-0.38c0.075-0.111 0.189-0.191 0.319-0.221s0.268-0.011 0.385 0.055l0.662 0.444c0.097 0.061 0.172 0.152 0.212 0.26s0.044 0.225 0.011 0.335c-0.033 0.11-0.101 0.206-0.194 0.273s-0.206 0.102-0.32 0.099z"></path>
<path d="M4.264 14.98c-0.11-0.002-0.216-0.038-0.306-0.102l-1.754-1.259c-0.1-0.087-0.165-0.208-0.18-0.34s0.019-0.265 0.097-0.372c0.078-0.108 0.193-0.182 0.323-0.21s0.265-0.005 0.379 0.063l1.754 1.259c0.111 0.082 0.186 0.203 0.209 0.339s-0.007 0.275-0.085 0.389c-0.050 0.070-0.115 0.127-0.191 0.167s-0.16 0.063-0.245 0.066z"></path>
<path d="M2.517 16.901c-0.088 0.001-0.174-0.019-0.252-0.060s-0.144-0.1-0.192-0.173c-0.075-0.116-0.103-0.258-0.075-0.393s0.106-0.256 0.221-0.334l0.669-0.444c0.117-0.066 0.254-0.086 0.385-0.055s0.245 0.11 0.319 0.221c0.075 0.111 0.104 0.247 0.083 0.38s-0.092 0.252-0.197 0.335l-0.669 0.444c-0.087 0.055-0.188 0.083-0.291 0.080z"></path>
</symbol>
<symbol id="icon-veneers" viewBox="0 0 32 32">
<path d="M13.322 15.38c-1.663 0-3.025-1.574-3.025-3.511v-3.826c0-0.319 0.127-0.626 0.353-0.852s0.532-0.353 0.852-0.353h3.648c0.319 0 0.626 0.127 0.852 0.353s0.353 0.532 0.353 0.852v3.826c0 1.937-1.362 3.511-3.032 3.511zM11.501 7.851c-0.027-0.001-0.054 0.004-0.080 0.014s-0.048 0.025-0.068 0.044c-0.019 0.019-0.034 0.042-0.044 0.068s-0.015 0.052-0.014 0.080v3.826c0 1.369 0.91 2.512 2.053 2.512s2.053-1.122 2.053-2.512v-3.84c0.001-0.027-0.004-0.054-0.014-0.080s-0.025-0.048-0.044-0.068c-0.019-0.019-0.042-0.034-0.068-0.044s-0.052-0.015-0.080-0.014l-3.696 0.014z"></path>
<path d="M18.38 15.38c-1.67 0-3.025-1.574-3.025-3.511v-3.826c0-0.318 0.126-0.624 0.35-0.849s0.529-0.353 0.847-0.355h3.655c0.318 0.002 0.623 0.13 0.847 0.355s0.35 0.531 0.35 0.849v3.826c0 1.937-1.355 3.511-3.025 3.511zM16.552 7.851c-0.027-0-0.053 0.005-0.078 0.016s-0.047 0.026-0.065 0.045-0.033 0.042-0.043 0.067c-0.010 0.025-0.014 0.051-0.013 0.078v3.826c0 1.369 0.91 2.512 2.053 2.512s2.053-1.122 2.053-2.512v-3.84c0.001-0.027-0.004-0.053-0.013-0.078s-0.024-0.048-0.043-0.067c-0.019-0.019-0.041-0.034-0.065-0.045s-0.051-0.016-0.078-0.016l-3.71 0.014z"></path>
<path d="M23.171 15.565c-1.519 0-2.738-1.437-2.738-3.196v-3.422c0.002-0.298 0.122-0.584 0.333-0.794s0.498-0.328 0.796-0.328h3.279c0.298 0 0.585 0.118 0.796 0.328s0.331 0.496 0.333 0.794v3.422c-0.027 1.759-1.273 3.196-2.799 3.196zM21.535 8.796c-0.034 0.002-0.066 0.016-0.090 0.040s-0.038 0.056-0.040 0.090v3.422c0 1.211 0.794 2.197 1.766 2.197s1.773-0.986 1.773-2.197v-3.422c-0.002-0.034-0.016-0.066-0.040-0.090s-0.056-0.038-0.090-0.040h-3.278z"></path>
<path d="M8.531 15.565c-1.526 0-2.738-1.437-2.738-3.196v-3.422c0.002-0.298 0.122-0.584 0.333-0.794s0.498-0.328 0.796-0.328h3.272c0.298 0 0.585 0.118 0.796 0.328s0.331 0.496 0.333 0.794v3.422c-0.027 1.759-1.266 3.196-2.793 3.196zM6.895 8.796c-0.034 0-0.068 0.014-0.092 0.038s-0.038 0.057-0.038 0.092v3.422c0 1.211 0.794 2.197 1.766 2.197s1.766-0.986 1.766-2.197v-3.422c0-0.034-0.014-0.068-0.038-0.092s-0.057-0.038-0.092-0.038h-3.272z"></path>
<path d="M15.15 25.38h-3.648c-0.319 0-0.626-0.127-0.852-0.353s-0.353-0.532-0.353-0.852v-3.826c0-1.937 1.369-3.511 3.025-3.511s3.032 1.574 3.032 3.511v3.826c0 0.158-0.031 0.315-0.092 0.461s-0.149 0.279-0.261 0.391c-0.112 0.112-0.245 0.201-0.391 0.261s-0.303 0.092-0.461 0.092zM13.322 17.851c-1.116 0-2.053 1.122-2.053 2.512v3.826c-0.001 0.027 0.004 0.054 0.014 0.080s0.025 0.048 0.044 0.068c0.019 0.019 0.042 0.034 0.068 0.044s0.053 0.015 0.080 0.014h3.648c0.027 0.001 0.054-0.004 0.080-0.014s0.048-0.025 0.068-0.044c0.019-0.019 0.034-0.042 0.044-0.068s0.015-0.052 0.014-0.080v-3.826c0.027-1.403-0.883-2.526-2.005-2.526v0.014z"></path>
<path d="M20.207 25.38h-3.655c-0.318-0.002-0.623-0.13-0.847-0.355s-0.35-0.531-0.35-0.849v-3.826c0-1.937 1.369-3.511 3.025-3.511s3.025 1.574 3.025 3.511v3.826c0 0.318-0.126 0.624-0.35 0.849s-0.529 0.353-0.847 0.355zM18.38 17.851c-1.116 0-2.053 1.122-2.053 2.512v3.826c-0.001 0.027 0.004 0.053 0.013 0.078s0.024 0.048 0.043 0.067c0.019 0.019 0.041 0.034 0.065 0.045s0.051 0.016 0.078 0.016h3.655c0.027 0 0.053-0.005 0.078-0.016s0.047-0.026 0.065-0.045 0.033-0.042 0.043-0.067c0.010-0.025 0.014-0.051 0.013-0.078v-3.826c0.027-1.403-0.883-2.526-1.999-2.526v0.014z"></path>
<path d="M24.814 24.415h-3.278c-0.3 0-0.587-0.119-0.799-0.331s-0.331-0.499-0.331-0.799v-3.422c0-1.759 1.246-3.196 2.738-3.196s2.772 1.437 2.772 3.196v3.422c0 0.295-0.115 0.578-0.321 0.789s-0.486 0.333-0.781 0.34zM23.171 17.653c-0.972 0-1.766 0.986-1.766 2.197v3.422c-0 0.035 0.013 0.069 0.038 0.094s0.057 0.041 0.092 0.042h3.278c0.035-0.002 0.068-0.017 0.092-0.042s0.038-0.059 0.038-0.094v-3.422c0-1.211-0.794-2.197-1.773-2.197z"></path>
<path d="M10.167 24.415h-3.272c-0.3 0-0.587-0.119-0.799-0.331s-0.331-0.499-0.331-0.799v-3.422c0-1.759 1.239-3.196 2.738-3.196s2.738 1.437 2.738 3.196v3.422c0 0.29-0.111 0.57-0.311 0.78s-0.473 0.335-0.763 0.35zM8.531 17.653c-0.972 0-1.766 0.986-1.766 2.197v3.422c-0.001 0.018 0.002 0.035 0.008 0.052s0.016 0.032 0.028 0.045c0.012 0.013 0.027 0.023 0.043 0.030s0.034 0.011 0.051 0.011h3.272c0.018 0 0.035-0.004 0.051-0.011s0.031-0.017 0.043-0.030c0.012-0.013 0.022-0.028 0.028-0.045s0.009-0.034 0.008-0.052v-3.422c0-1.211-0.794-2.197-1.766-2.197z"></path>
<path d="M25.443 23.552c-0.121-0.003-0.237-0.050-0.326-0.133s-0.145-0.194-0.158-0.315c-0.013-0.121 0.019-0.242 0.089-0.341s0.174-0.169 0.292-0.197c1.495-0.305 2.839-1.117 3.804-2.299s1.492-2.661 1.492-4.186-0.527-3.005-1.492-4.186c-0.965-1.182-2.309-1.994-3.804-2.299-0.126-0.030-0.235-0.108-0.305-0.217s-0.094-0.241-0.068-0.368c0.026-0.127 0.1-0.239 0.206-0.312s0.238-0.103 0.365-0.081c1.72 0.351 3.266 1.286 4.377 2.646s1.717 3.062 1.717 4.818c0 1.756-0.607 3.458-1.717 4.818s-2.657 2.295-4.377 2.646l-0.096 0.007z"></path>
<path d="M25.443 20.972c-0.080-0.001-0.159-0.020-0.231-0.057s-0.133-0.090-0.18-0.155c-0.075-0.106-0.105-0.238-0.083-0.366s0.093-0.243 0.199-0.318c0.844-0.607 1.476-1.464 1.807-2.45-0.395-0.414-0.616-0.964-0.616-1.537s0.221-1.123 0.616-1.537c-0.331-0.986-0.963-1.843-1.807-2.45-0.106-0.076-0.177-0.19-0.199-0.318s0.008-0.26 0.083-0.366c0.077-0.104 0.191-0.175 0.319-0.196s0.259 0.007 0.366 0.080c1.125 0.806 1.931 1.98 2.279 3.32 0.027 0.105 0.018 0.216-0.024 0.316s-0.115 0.184-0.209 0.238c-0.137 0.111-0.248 0.251-0.324 0.411s-0.115 0.334-0.115 0.51 0.039 0.351 0.115 0.51c0.076 0.159 0.187 0.3 0.324 0.411 0.094 0.055 0.167 0.138 0.209 0.238s0.050 0.211 0.024 0.316c-0.34 1.345-1.142 2.527-2.266 3.34-0.088 0.048-0.188 0.070-0.287 0.062z"></path>
<path d="M28.010 18.070c-0.408 0.070-0.828 0.013-1.203-0.163s-0.686-0.464-0.892-0.824c-0.206-0.36-0.296-0.774-0.258-1.186s0.201-0.803 0.468-1.12c0.267-0.316 0.625-0.543 1.026-0.649s0.824-0.086 1.213 0.057c0.389 0.143 0.724 0.402 0.961 0.742s0.363 0.744 0.362 1.159c0.036 0.485-0.119 0.964-0.433 1.335s-0.76 0.604-1.244 0.65zM28.010 15.093c-0.363 0-0.684 0.452-0.684 0.992s0.308 0.986 0.684 0.986c0.376 0 0.684-0.452 0.684-0.986s-0.315-0.992-0.684-0.992z"></path>
<path d="M6.265 23.553h-0.103c-1.72-0.351-3.267-1.286-4.377-2.646s-1.717-3.062-1.717-4.818c0-1.756 0.607-3.458 1.717-4.818s2.657-2.295 4.377-2.646c0.13-0.026 0.265 0 0.375 0.073s0.187 0.187 0.214 0.317c0.014 0.064 0.015 0.131 0.003 0.196s-0.037 0.126-0.074 0.181-0.083 0.102-0.138 0.138c-0.055 0.036-0.116 0.061-0.181 0.074-1.495 0.305-2.839 1.117-3.804 2.299s-1.492 2.661-1.492 4.186c0 1.526 0.527 3.005 1.492 4.186s2.309 1.994 3.804 2.299c0.118 0.028 0.221 0.097 0.292 0.196s0.103 0.219 0.091 0.339c-0.012 0.12-0.067 0.232-0.155 0.315s-0.203 0.131-0.324 0.136v-0.007z"></path>
<path d="M6.265 20.972c-0.106-0.001-0.208-0.035-0.294-0.096-1.123-0.808-1.929-1.982-2.279-3.32-0.027-0.105-0.018-0.216 0.024-0.316s0.115-0.184 0.209-0.238c0.137-0.111 0.248-0.251 0.324-0.411s0.115-0.334 0.115-0.51c0-0.177-0.039-0.351-0.115-0.51s-0.187-0.3-0.324-0.411c-0.094-0.055-0.167-0.138-0.209-0.238s-0.050-0.211-0.024-0.316c0.351-1.338 1.157-2.512 2.279-3.32 0.052-0.045 0.114-0.079 0.18-0.1s0.136-0.027 0.205-0.019 0.135 0.030 0.195 0.066c0.060 0.035 0.112 0.082 0.152 0.139s0.069 0.12 0.083 0.188c0.014 0.068 0.015 0.138 0 0.206s-0.042 0.132-0.083 0.189c-0.040 0.056-0.092 0.104-0.152 0.139-0.842 0.608-1.472 1.465-1.8 2.45 0.391 0.416 0.608 0.966 0.608 1.537s-0.218 1.12-0.608 1.537c0.328 0.985 0.958 1.843 1.8 2.45 0.106 0.076 0.177 0.19 0.199 0.318s-0.008 0.26-0.083 0.366c-0.045 0.066-0.105 0.121-0.175 0.159s-0.149 0.059-0.229 0.060z"></path>
<path d="M3.692 18.070c-0.408 0.072-0.829 0.016-1.204-0.16s-0.688-0.462-0.895-0.821c-0.207-0.359-0.298-0.773-0.262-1.186s0.199-0.804 0.466-1.122c0.267-0.317 0.625-0.544 1.025-0.651s0.824-0.088 1.213 0.055c0.389 0.142 0.725 0.401 0.962 0.741s0.364 0.745 0.363 1.159c0.038 0.484-0.116 0.963-0.428 1.335s-0.759 0.605-1.242 0.65zM3.692 15.093c-0.363 0-0.684 0.452-0.684 0.992s0.308 0.986 0.684 0.986c0.376 0 0.684-0.452 0.684-0.986s-0.322-0.992-0.684-0.992z"></path>
</symbol>
<symbol id="icon-childrens" viewBox="0 0 32 32">
<path d="M19.074 8.307c-0.045 0.007-0.091 0.007-0.135 0-1.213-0.313-2.339-0.898-3.293-1.711-0.055-0.046-0.099-0.102-0.131-0.165s-0.051-0.133-0.055-0.204c-0.004-0.071 0.006-0.142 0.030-0.209s0.062-0.128 0.111-0.179c0.049-0.052 0.107-0.093 0.173-0.121s0.136-0.043 0.207-0.042c0.071 0 0.141 0.015 0.206 0.043s0.124 0.070 0.172 0.121c0.836 0.676 1.809 1.162 2.851 1.426 0.119 0.035 0.222 0.112 0.289 0.216s0.096 0.229 0.079 0.352c-0.016 0.123-0.076 0.236-0.169 0.319s-0.211 0.13-0.335 0.133v0.021z"></path>
<path d="M20.821 30.51c-0.181 0.001-0.36-0.023-0.535-0.071-0.467-0.148-0.872-0.445-1.154-0.845s-0.425-0.882-0.407-1.372v-2.851c0.049-0.776-0.209-1.54-0.718-2.126s-1.23-0.95-2.004-1.010c-1.497 0-2.723 1.426-2.723 3.136v2.851c0.018 0.489-0.125 0.971-0.407 1.372s-0.687 0.697-1.154 0.845c-0.425 0.116-0.876 0.087-1.283-0.082s-0.745-0.469-0.963-0.852c-4.163-6.736-4.191-17.022-4.191-17.456 0-4.277 3.108-7.755 6.928-7.755 1.368 0.003 2.698 0.448 3.792 1.269 1.094-0.82 2.424-1.265 3.792-1.269 3.821 0 6.928 3.478 6.928 7.755 0 0.435 0 10.692-4.191 17.456-0.174 0.301-0.423 0.552-0.723 0.728s-0.64 0.272-0.988 0.277zM16.002 21.165c2.074 0 3.764 1.875 3.764 4.177v2.851c-0.021 0.263 0.047 0.526 0.193 0.745s0.362 0.384 0.613 0.466c0.207 0.058 0.427 0.041 0.624-0.046s0.356-0.24 0.453-0.432c4.006-6.479 4.034-16.808 4.034-16.907 0-3.707-2.644-6.715-5.888-6.715-1.269 0.005-2.495 0.463-3.457 1.29-0.095 0.076-0.213 0.118-0.335 0.118s-0.24-0.042-0.335-0.118c-0.962-0.827-2.188-1.285-3.457-1.29-3.243 0-5.888 3.008-5.888 6.715 0 0.1 0 10.428 4.034 16.907 0.097 0.191 0.257 0.343 0.453 0.43s0.416 0.104 0.623 0.048c0.252-0.081 0.469-0.245 0.617-0.465s0.216-0.483 0.196-0.747v-2.851c0-2.324 1.682-4.198 3.756-4.198v0.021z"></path>
<path d="M16.002 17.445c-5.517 0-15.945-0.713-15.945-3.364 0-0.428 0-1.725 5.702-2.644 0.067-0.012 0.136-0.011 0.202 0.004s0.129 0.043 0.184 0.083c0.055 0.040 0.102 0.091 0.137 0.149s0.058 0.123 0.068 0.191c0.023 0.136-0.010 0.276-0.090 0.388s-0.202 0.188-0.338 0.211c-3.985 0.641-4.797 1.426-4.797 1.618 0 0.791 5.268 2.324 14.912 2.324s14.912-1.533 14.912-2.324c0-0.178-0.813-0.977-4.797-1.618-0.068-0.010-0.134-0.034-0.192-0.070s-0.11-0.083-0.15-0.139c-0.040-0.056-0.069-0.119-0.085-0.186s-0.018-0.137-0.007-0.205c0.011-0.068 0.036-0.133 0.073-0.191s0.085-0.109 0.141-0.149c0.056-0.040 0.12-0.068 0.187-0.083s0.137-0.016 0.205-0.004c5.667 0.919 5.667 2.217 5.667 2.644-0.036 2.659-10.471 3.364-15.988 3.364z"></path>
<path d="M5.61 24.494c-0.161 0.009-0.323-0.015-0.475-0.070s-0.291-0.14-0.409-0.251c-0.463-0.463-0.82-1.461 1.426-4.818 0.036-0.060 0.084-0.112 0.141-0.153s0.121-0.070 0.189-0.086c0.068-0.016 0.139-0.017 0.208-0.005s0.135 0.039 0.193 0.077 0.109 0.088 0.148 0.146c0.039 0.058 0.066 0.124 0.078 0.193s0.012 0.14-0.003 0.208c-0.015 0.068-0.044 0.133-0.084 0.19-1.675 2.523-1.639 3.414-1.54 3.514 0.556 0.563 5.367-2.074 12.189-8.896s9.452-11.633 8.896-12.189c-0.135-0.135-1.547-0.057-5.46 2.93-0.109 0.070-0.241 0.097-0.369 0.074s-0.243-0.091-0.323-0.194c-0.080-0.103-0.118-0.232-0.107-0.361s0.069-0.25 0.165-0.339c5.481-4.191 6.494-3.179 6.829-2.851 1.882 1.882-4.99 9.751-8.896 13.657-3.471 3.45-10.015 9.224-12.795 9.224z"></path>
<path d="M26.38 24.523c-0.763 0-2.053-0.463-4.377-2.060-2.997-2.148-5.802-4.552-8.382-7.185-2.629-2.582-5.033-5.384-7.185-8.375-2.552-3.714-2.203-4.79-1.711-5.282 0.335-0.335 1.347-1.347 6.829 2.851 0.061 0.039 0.113 0.090 0.153 0.15s0.067 0.128 0.079 0.199c0.012 0.071 0.010 0.144-0.008 0.214s-0.049 0.136-0.093 0.193-0.1 0.104-0.163 0.139c-0.064 0.034-0.133 0.055-0.206 0.061s-0.144-0.003-0.213-0.027c-0.068-0.024-0.131-0.061-0.184-0.11-3.906-2.987-5.317-3.072-5.46-2.93s-0.128 1.112 1.832 3.956c2.116 2.942 4.482 5.697 7.071 8.233 6.821 6.821 11.626 9.459 12.182 8.896 0.1-0.1 0.135-0.991-1.532-3.514-0.047-0.056-0.082-0.122-0.102-0.192s-0.025-0.144-0.014-0.217 0.036-0.142 0.076-0.204c0.039-0.062 0.091-0.115 0.152-0.155s0.13-0.067 0.203-0.079 0.146-0.008 0.217 0.010c0.071 0.019 0.137 0.052 0.194 0.098s0.104 0.104 0.137 0.169c2.224 3.357 1.867 4.355 1.426 4.818-0.119 0.12-0.263 0.213-0.422 0.272s-0.329 0.083-0.497 0.070z"></path>
</symbol>
<symbol id="icon-braces" viewBox="0 0 32 32">
<path d="M10.515 13.958h-4.666c-0.536 0-1.052-0.207-1.438-0.579s-0.613-0.879-0.633-1.415v-0.138c0-3.451 1.967-6.315 4.383-6.315s4.389 2.837 4.389 6.315v0.138c-0.019 0.53-0.241 1.032-0.62 1.403s-0.886 0.583-1.416 0.591zM8.182 6.518c-1.863 0-3.375 2.381-3.375 5.307v0.124c0.009 0.27 0.123 0.525 0.318 0.712s0.455 0.29 0.725 0.288h4.666c0.271 0.002 0.531-0.101 0.727-0.288s0.311-0.442 0.322-0.713v-0.124c0-2.926-1.505-5.307-3.382-5.307z"></path>
<path d="M8.976 11.922h-1.58c-0.25 0-0.489-0.099-0.666-0.274s-0.278-0.415-0.279-0.664v-1.581c0.002-0.25 0.102-0.49 0.279-0.667s0.416-0.277 0.667-0.279h1.581c0.25 0.002 0.488 0.102 0.664 0.279s0.274 0.417 0.274 0.666v1.581c0 0.249-0.099 0.488-0.275 0.664s-0.415 0.275-0.664 0.275zM7.458 10.914h1.449v-1.449h-1.449v1.449z"></path>
<path d="M8.182 9.465c-0.134 0-0.262-0.053-0.356-0.148s-0.148-0.223-0.148-0.356v-0.573c0-0.134 0.053-0.262 0.148-0.356s0.223-0.148 0.356-0.148c0.134 0 0.262 0.053 0.356 0.148s0.148 0.223 0.148 0.356v0.594c-0.005 0.13-0.061 0.253-0.155 0.343s-0.219 0.14-0.349 0.14z"></path>
<path d="M8.182 12.287c-0.134 0-0.262-0.053-0.356-0.148s-0.148-0.223-0.148-0.356v-0.366c0-0.134 0.053-0.262 0.148-0.356s0.223-0.148 0.356-0.148c0.134 0 0.262 0.053 0.356 0.148s0.148 0.223 0.148 0.356v0.366c0 0.134-0.053 0.262-0.148 0.356s-0.223 0.148-0.356 0.148z"></path>
<path d="M18.279 13.958h-4.666c-0.536 0-1.052-0.207-1.438-0.579s-0.613-0.879-0.633-1.415v-0.138c0-3.451 1.967-6.315 4.383-6.315s4.39 2.837 4.39 6.315v0.145c-0.021 0.529-0.244 1.029-0.622 1.399s-0.884 0.58-1.414 0.589zM15.947 6.518c-1.863 0-3.375 2.381-3.375 5.307v0.124c0.009 0.27 0.123 0.525 0.318 0.712s0.455 0.29 0.725 0.288h4.666c0.271 0.002 0.531-0.101 0.727-0.288s0.311-0.442 0.322-0.713v-0.124c0-2.926-1.518-5.307-3.382-5.307z"></path>
<path d="M16.74 11.922h-1.581c-0.125 0.003-0.249-0.019-0.366-0.065s-0.222-0.115-0.312-0.202c-0.089-0.087-0.16-0.192-0.209-0.307s-0.073-0.239-0.073-0.364v-1.581c0-0.25 0.099-0.489 0.274-0.666s0.415-0.278 0.664-0.279h1.58c0.248 0.004 0.485 0.105 0.66 0.282s0.272 0.415 0.272 0.664v1.581c0 0.244-0.095 0.479-0.265 0.654s-0.402 0.277-0.646 0.284zM15.222 10.914h1.449v-1.449h-1.449v1.449z"></path>
<path d="M15.947 9.465c-0.134 0-0.262-0.053-0.356-0.148s-0.148-0.223-0.148-0.356v-0.573c0-0.134 0.053-0.262 0.148-0.356s0.223-0.148 0.356-0.148 0.262 0.053 0.356 0.148c0.095 0.094 0.148 0.223 0.148 0.356v0.594c-0.005 0.13-0.061 0.253-0.155 0.343s-0.219 0.14-0.349 0.14z"></path>
<path d="M15.947 12.287c-0.134 0-0.262-0.053-0.356-0.148s-0.148-0.223-0.148-0.356v-0.366c0-0.134 0.053-0.262 0.148-0.356s0.223-0.148 0.356-0.148 0.262 0.053 0.356 0.148c0.095 0.095 0.148 0.223 0.148 0.356v0.366c0 0.134-0.053 0.262-0.148 0.356s-0.223 0.148-0.356 0.148z"></path>
<path d="M26.044 13.958h-4.666c-0.536 0-1.052-0.207-1.438-0.579s-0.613-0.879-0.633-1.415v-0.138c0-3.451 1.967-6.315 4.383-6.315s4.389 2.837 4.389 6.315v0.145c-0.021 0.529-0.244 1.029-0.622 1.399s-0.884 0.58-1.414 0.589zM23.711 6.518c-1.863 0-3.375 2.381-3.375 5.307v0.124c0.009 0.27 0.123 0.525 0.318 0.712s0.455 0.29 0.724 0.288h4.666c0.271 0.002 0.531-0.101 0.727-0.288s0.311-0.442 0.322-0.713v-0.124c0-2.926-1.518-5.307-3.382-5.307z"></path>
<path d="M24.505 11.922h-1.58c-0.249 0-0.488-0.099-0.664-0.275s-0.275-0.415-0.275-0.664v-1.581c0-0.25 0.099-0.489 0.275-0.666s0.415-0.278 0.664-0.279h1.58c0.25 0.002 0.488 0.102 0.664 0.279s0.275 0.417 0.275 0.666v1.581c0 0.249-0.099 0.488-0.275 0.664s-0.415 0.275-0.664 0.275zM22.986 10.914h1.449v-1.449h-1.449v1.449z"></path>
<path d="M23.711 9.465c-0.134 0-0.262-0.053-0.356-0.148s-0.148-0.223-0.148-0.356v-0.573c0-0.134 0.053-0.262 0.148-0.356s0.223-0.148 0.356-0.148c0.134 0 0.262 0.053 0.356 0.148s0.148 0.223 0.148 0.356v0.594c-0.005 0.13-0.061 0.253-0.155 0.343s-0.219 0.14-0.349 0.14z"></path>
<path d="M23.711 12.287c-0.134 0-0.262-0.053-0.356-0.148s-0.148-0.223-0.148-0.356v-0.366c0-0.134 0.053-0.262 0.148-0.356s0.223-0.148 0.356-0.148c0.134 0 0.262 0.053 0.356 0.148s0.148 0.223 0.148 0.356v0.366c0 0.134-0.053 0.262-0.148 0.356s-0.223 0.148-0.356 0.148z"></path>
<path d="M17.175 10.686c-0.131-0.002-0.257-0.054-0.352-0.145-0.096-0.095-0.151-0.224-0.152-0.359v-0.69h-1.449v0.69c-0.002 0.133-0.054 0.261-0.145 0.359-0.048 0.048-0.105 0.086-0.168 0.111s-0.13 0.037-0.198 0.034c-1.863 0-3.665-0.104-5.342-0.235-0.126-0.010-0.244-0.068-0.33-0.161s-0.133-0.216-0.133-0.342v-0.483h-1.449v0.242c0.002 0.071-0.012 0.142-0.041 0.208s-0.070 0.124-0.123 0.172c-0.053 0.048-0.116 0.084-0.184 0.105s-0.14 0.028-0.211 0.019c-6.557-0.794-6.557-2.015-6.557-2.471 0.014-0.123 0.073-0.236 0.166-0.318s0.211-0.127 0.335-0.127c0.123 0 0.243 0.045 0.335 0.127s0.151 0.195 0.166 0.318c0.117 0.235 1.249 0.911 5.149 1.422 0.054-0.198 0.172-0.373 0.336-0.498s0.363-0.192 0.569-0.193h1.581c0.25 0.002 0.488 0.102 0.664 0.279s0.274 0.417 0.274 0.666v0.083c1.38 0.097 2.809 0.159 4.307 0.186v-0.269c0-0.25 0.099-0.489 0.275-0.666s0.415-0.278 0.664-0.279h1.581c0.242 0.009 0.472 0.11 0.642 0.284s0.266 0.405 0.269 0.648v0.269c1.491 0 2.94-0.090 4.307-0.186v-0.083c0-0.25 0.099-0.489 0.274-0.666s0.415-0.278 0.664-0.279h1.581c0.205 0.001 0.404 0.069 0.567 0.194s0.281 0.299 0.337 0.496c3.941-0.518 5.052-1.201 5.149-1.429 0-0.065 0.013-0.129 0.038-0.189s0.062-0.114 0.108-0.16 0.101-0.082 0.161-0.106c0.060-0.024 0.125-0.036 0.19-0.035 0.067 0.001 0.133 0.015 0.195 0.042s0.117 0.065 0.164 0.113c0.047 0.048 0.084 0.105 0.108 0.167s0.037 0.129 0.036 0.196c0 0.456 0 1.677-6.557 2.471-0.071 0.008-0.143 0.001-0.211-0.021s-0.131-0.057-0.184-0.105-0.096-0.106-0.126-0.171c-0.029-0.065-0.045-0.136-0.046-0.207v-0.242h-1.449v0.483c0 0.127-0.047 0.249-0.133 0.342s-0.203 0.151-0.33 0.161c-1.677 0.131-3.451 0.207-5.342 0.235l0.021-0.007z"></path>
<path d="M8.182 26.236c-2.416 0-4.383-2.837-4.383-6.315v-0.138c0.020-0.536 0.246-1.043 0.633-1.415s0.902-0.58 1.438-0.579h4.666c0.535-0 1.050 0.206 1.436 0.577s0.614 0.876 0.635 1.411v0.145c-0.035 3.479-2.002 6.315-4.424 6.315zM5.849 18.796c-0.27-0.002-0.53 0.102-0.725 0.288s-0.309 0.443-0.318 0.712v0.124c0 2.926 1.511 5.307 3.375 5.307s3.382-2.381 3.382-5.307v-0.124c-0.011-0.27-0.126-0.526-0.322-0.713s-0.457-0.29-0.727-0.288h-4.666z"></path>
<path d="M8.976 23.282h-1.58c-0.25 0-0.489-0.099-0.666-0.275s-0.278-0.415-0.279-0.664v-1.58c0.002-0.25 0.102-0.488 0.279-0.664s0.417-0.275 0.666-0.275h1.58c0.249 0 0.488 0.099 0.664 0.275s0.275 0.415 0.275 0.664v1.58c0 0.249-0.099 0.488-0.275 0.664s-0.415 0.275-0.664 0.275zM7.458 22.281h1.449v-1.449h-1.449v1.449z"></path>
<path d="M8.182 23.862c-0.066 0-0.132-0.013-0.193-0.038s-0.117-0.062-0.163-0.109-0.084-0.102-0.109-0.163c-0.025-0.061-0.038-0.127-0.038-0.193v-0.573c-0.008-0.071-0.002-0.142 0.020-0.21s0.057-0.13 0.104-0.184c0.047-0.053 0.105-0.096 0.17-0.125s0.135-0.044 0.206-0.044 0.141 0.015 0.206 0.044c0.065 0.029 0.123 0.072 0.17 0.125s0.083 0.116 0.104 0.184c0.021 0.068 0.028 0.139 0.020 0.21v0.573c0 0.132-0.052 0.26-0.145 0.354s-0.219 0.148-0.352 0.15z"></path>
<path d="M8.182 20.832c-0.134 0-0.262-0.053-0.356-0.148s-0.148-0.223-0.148-0.356v-0.366c0-0.066 0.013-0.132 0.038-0.193s0.062-0.117 0.109-0.163c0.047-0.047 0.102-0.084 0.163-0.109s0.127-0.038 0.193-0.038c0.066 0 0.132 0.013 0.193 0.038s0.117 0.062 0.164 0.109c0.047 0.047 0.084 0.102 0.109 0.163s0.038 0.127 0.038 0.193v0.366c0 0.134-0.053 0.262-0.148 0.356s-0.223 0.148-0.356 0.148z"></path>
<path d="M15.947 26.236c-2.416 0-4.383-2.837-4.383-6.315v-0.138c0.020-0.536 0.246-1.043 0.633-1.415s0.902-0.58 1.438-0.579h4.666c0.535-0 1.050 0.206 1.436 0.577s0.614 0.876 0.635 1.411v0.145c-0.034 3.479-2.029 6.315-4.424 6.315zM13.614 18.796c-0.27-0.002-0.53 0.102-0.725 0.288s-0.309 0.443-0.318 0.712v0.124c0 2.926 1.511 5.307 3.375 5.307s3.382-2.381 3.382-5.307v-0.124c-0.011-0.27-0.126-0.526-0.322-0.713s-0.457-0.29-0.727-0.288h-4.666z"></path>
<path d="M16.74 23.282h-1.581c-0.125 0.003-0.249-0.020-0.366-0.065s-0.222-0.115-0.312-0.202c-0.089-0.087-0.16-0.192-0.209-0.307s-0.073-0.239-0.073-0.364v-1.58c0-0.249 0.099-0.488 0.275-0.664s0.415-0.275 0.664-0.275h1.58c0.248 0.002 0.485 0.102 0.659 0.277s0.273 0.414 0.273 0.661v1.58c0 0.244-0.095 0.479-0.265 0.654s-0.402 0.277-0.646 0.285zM15.222 22.281h1.449v-1.449h-1.449v1.449z"></path>
<path d="M15.947 23.862c-0.066 0-0.132-0.013-0.193-0.038s-0.117-0.062-0.164-0.109-0.084-0.102-0.109-0.163c-0.025-0.061-0.038-0.127-0.038-0.193v-0.573c0-0.066 0.013-0.132 0.038-0.193s0.062-0.117 0.109-0.163c0.047-0.047 0.102-0.084 0.164-0.109s0.127-0.038 0.193-0.038c0.066 0 0.132 0.013 0.193 0.038s0.117 0.062 0.163 0.109c0.047 0.047 0.084 0.102 0.109 0.163s0.038 0.127 0.038 0.193v0.573c0 0.066-0.013 0.132-0.038 0.193s-0.062 0.117-0.109 0.163-0.102 0.084-0.163 0.109c-0.061 0.025-0.127 0.038-0.193 0.038z"></path>
<path d="M15.947 20.832c-0.134 0-0.262-0.053-0.356-0.148s-0.148-0.223-0.148-0.356v-0.366c0-0.066 0.013-0.132 0.038-0.193s0.062-0.117 0.109-0.163c0.047-0.047 0.102-0.084 0.164-0.109s0.127-0.038 0.193-0.038c0.066 0 0.132 0.013 0.193 0.038s0.117 0.062 0.163 0.109c0.047 0.047 0.084 0.102 0.109 0.163s0.038 0.127 0.038 0.193v0.366c0 0.134-0.053 0.262-0.148 0.356s-0.223 0.148-0.356 0.148z"></path>
<path d="M23.711 26.236c-2.416 0-4.383-2.837-4.383-6.315v-0.145c0.021-0.535 0.249-1.040 0.635-1.411s0.9-0.577 1.436-0.577h4.666c0.535-0 1.050 0.206 1.436 0.577s0.614 0.876 0.635 1.411v0.145c-0.035 3.479-2.002 6.315-4.424 6.315zM21.378 18.796c-0.27-0.002-0.53 0.102-0.725 0.288s-0.309 0.443-0.318 0.712v0.124c0 2.926 1.512 5.307 3.375 5.307s3.382-2.381 3.382-5.307v-0.124c-0.011-0.27-0.126-0.526-0.322-0.713s-0.456-0.29-0.727-0.288h-4.666z"></path>
<path d="M24.505 23.282h-1.58c-0.249 0-0.488-0.099-0.664-0.275s-0.275-0.415-0.275-0.664v-1.58c0-0.249 0.099-0.488 0.275-0.664s0.415-0.275 0.664-0.275h1.58c0.249 0 0.488 0.099 0.664 0.275s0.275 0.415 0.275 0.664v1.58c0 0.249-0.099 0.488-0.275 0.664s-0.415 0.275-0.664 0.275zM22.986 22.281h1.449v-1.449h-1.449v1.449z"></path>
<path d="M23.711 23.862c-0.066 0-0.132-0.013-0.193-0.038s-0.117-0.062-0.163-0.109-0.084-0.102-0.109-0.163c-0.025-0.061-0.038-0.127-0.038-0.193v-0.573c0-0.134 0.053-0.262 0.148-0.356s0.223-0.148 0.356-0.148 0.262 0.053 0.356 0.148c0.094 0.094 0.148 0.223 0.148 0.356v0.573c0 0.066-0.013 0.132-0.038 0.193s-0.062 0.117-0.109 0.163-0.102 0.084-0.163 0.109c-0.061 0.025-0.127 0.038-0.193 0.038z"></path>
<path d="M23.711 20.832c-0.134 0-0.262-0.053-0.356-0.148s-0.148-0.223-0.148-0.356v-0.366c0-0.134 0.053-0.262 0.148-0.356s0.223-0.148 0.356-0.148 0.262 0.053 0.356 0.148c0.094 0.094 0.148 0.223 0.148 0.356v0.366c0 0.134-0.053 0.262-0.148 0.356s-0.223 0.148-0.356 0.148z"></path>
<path d="M0.839 24.524c-0.134-0.004-0.262-0.060-0.355-0.157s-0.144-0.227-0.142-0.361c0-0.456 0-1.677 6.557-2.471 0.071-0.009 0.143-0.002 0.211 0.019s0.131 0.057 0.184 0.105 0.095 0.107 0.123 0.172c0.028 0.066 0.042 0.137 0.041 0.208v0.242h1.449v-0.483c-0-0.127 0.047-0.249 0.133-0.342s0.203-0.151 0.33-0.161c1.677-0.131 3.451-0.207 5.342-0.235 0.068-0.002 0.135 0.009 0.198 0.034s0.12 0.063 0.168 0.111c0.092 0.097 0.144 0.225 0.145 0.359v0.69h1.449v-0.69c0-0.067 0.014-0.133 0.040-0.195s0.064-0.117 0.112-0.164c0.047-0.048 0.103-0.085 0.164-0.11s0.128-0.037 0.195-0.035c1.87 0 3.672 0.104 5.342 0.235 0.126 0.010 0.244 0.068 0.33 0.161s0.133 0.216 0.133 0.342v0.483h1.449v-0.242c0.001-0.071 0.016-0.142 0.046-0.207s0.072-0.123 0.126-0.171c0.053-0.047 0.116-0.083 0.184-0.105s0.14-0.029 0.211-0.021c6.557 0.794 6.557 2.015 6.557 2.471 0 0.134-0.053 0.262-0.148 0.356s-0.223 0.148-0.356 0.148c-0.134 0-0.262-0.053-0.356-0.148s-0.148-0.223-0.148-0.356c-0.090-0.2-1.201-0.883-5.142-1.38-0.054 0.198-0.172 0.373-0.336 0.498s-0.363 0.192-0.569 0.193h-1.581c-0.249 0-0.488-0.099-0.664-0.275s-0.275-0.415-0.275-0.664v-0.083c-1.38-0.097-2.809-0.159-4.307-0.186v0.269c0 0.249-0.099 0.488-0.275 0.664s-0.415 0.275-0.664 0.275h-1.581c-0.128 0.003-0.255-0.020-0.374-0.068s-0.226-0.12-0.316-0.211c-0.090-0.091-0.16-0.2-0.207-0.319s-0.068-0.247-0.063-0.375v-0.248c-1.498 0-2.94 0.090-4.307 0.186v0.083c0 0.249-0.099 0.488-0.275 0.664s-0.415 0.275-0.664 0.275h-1.56c-0.205-0-0.405-0.068-0.569-0.193s-0.281-0.299-0.336-0.498c-3.941 0.518-5.059 1.201-5.149 1.429-0.001 0.065-0.015 0.129-0.041 0.189s-0.063 0.113-0.11 0.158c-0.047 0.045-0.102 0.080-0.163 0.104s-0.125 0.034-0.19 0.033z"></path>
</symbol>
<symbol id="icon-hygiene" viewBox="0 0 32 32">
<path d="M6.26 31.967c-0.342-0.003-0.678-0.094-0.975-0.264s-0.546-0.413-0.722-0.706c-1.631-2.564-1.844-4.526-2.087-6.796-0.066-0.625-0.14-1.264-0.242-1.954-0.905-1.38-1.464-2.958-1.631-4.599-0.184-1.925-0.184-3.189-0.184-3.24 0-4.078 3.056-7.391 6.811-7.391 0.142 0 0.279 0.056 0.379 0.157s0.157 0.237 0.157 0.379c0 0.142-0.057 0.279-0.157 0.379s-0.237 0.157-0.379 0.157c-3.167 0-5.738 2.836-5.738 6.318 0 0 0 1.271 0.176 3.137 0.136 1.498 0.641 2.94 1.469 4.195 0.045 0.063 0.073 0.136 0.081 0.213 0.118 0.735 0.191 1.469 0.264 2.116 0.235 2.204 0.426 3.982 1.925 6.34 0.1 0.181 0.259 0.322 0.449 0.401s0.403 0.090 0.601 0.033c0.227-0.077 0.422-0.227 0.554-0.426s0.196-0.437 0.18-0.676v-2.726c-0.039-0.511 0.027-1.024 0.196-1.508s0.435-0.928 0.783-1.304c0.348-0.376 0.77-0.676 1.239-0.881s0.976-0.311 1.489-0.311 1.019 0.106 1.489 0.311c0.469 0.205 0.891 0.505 1.239 0.881s0.615 0.82 0.783 1.304c0.168 0.484 0.235 0.997 0.196 1.508v2.726c-0.016 0.239 0.047 0.477 0.18 0.676s0.328 0.349 0.555 0.426c0.198 0.056 0.41 0.044 0.6-0.035s0.349-0.219 0.45-0.399c0.752-1.151 1.282-2.431 1.565-3.776 0.028-0.139 0.111-0.262 0.229-0.34s0.263-0.107 0.403-0.079c0.14 0.030 0.262 0.114 0.341 0.234s0.106 0.265 0.078 0.406c-0.308 1.472-0.891 2.873-1.719 4.129-0.223 0.376-0.565 0.667-0.972 0.828s-0.856 0.182-1.276 0.061c-0.448-0.146-0.837-0.432-1.111-0.815s-0.417-0.845-0.41-1.316v-2.726c0.039-0.37 0-0.744-0.115-1.097s-0.303-0.679-0.551-0.956-0.553-0.497-0.892-0.649c-0.34-0.151-0.707-0.229-1.079-0.229s-0.739 0.078-1.079 0.229c-0.34 0.151-0.644 0.372-0.892 0.649s-0.437 0.602-0.551 0.956c-0.115 0.354-0.154 0.728-0.115 1.097v2.726c0.007 0.471-0.136 0.932-0.41 1.316s-0.663 0.669-1.111 0.815c-0.15 0.049-0.306 0.081-0.463 0.096z"></path>
<path d="M30.74 23.033c-0.093-0.001-0.183-0.024-0.264-0.069s-0.149-0.11-0.198-0.188l-12.556-20.99c-0.1-0.16-0.258-0.276-0.441-0.323-0.091-0.025-0.187-0.031-0.28-0.017s-0.183 0.047-0.263 0.098c-0.081 0.047-0.152 0.111-0.208 0.187s-0.095 0.162-0.116 0.254c-0.025 0.091-0.031 0.187-0.017 0.28s0.047 0.183 0.098 0.263l10.932 18.272c0.064 0.121 0.079 0.262 0.042 0.394s-0.123 0.245-0.241 0.315c-0.118 0.070-0.258 0.093-0.391 0.064s-0.251-0.109-0.328-0.223l-10.94-18.279c-0.242-0.406-0.313-0.892-0.198-1.351s0.409-0.853 0.815-1.096c0.201-0.122 0.424-0.204 0.656-0.239s0.47-0.025 0.698 0.032c0.228 0.057 0.443 0.158 0.632 0.298s0.348 0.317 0.468 0.519l12.556 20.99c0.037 0.060 0.062 0.127 0.073 0.197s0.008 0.141-0.010 0.209c-0.017 0.068-0.048 0.133-0.090 0.189s-0.096 0.104-0.157 0.139c-0.083 0.048-0.176 0.073-0.272 0.073z"></path>
<path d="M18.75 25.12c-0.084 0.001-0.166-0.019-0.24-0.058s-0.138-0.094-0.186-0.163c-0.057-0.074-0.093-0.163-0.105-0.256s0.002-0.187 0.038-0.273c1.602-3.769-2.483-6.509-2.66-6.612-0.071-0.045-0.13-0.107-0.173-0.18s-0.066-0.155-0.070-0.239c-0.004-0.085 0.012-0.17 0.047-0.247s0.086-0.146 0.152-0.201c1.095-0.874 1.117-1.69 0.999-2.153-3.945 1.55-7.531-2.020-7.685-2.204-0.069-0.066-0.118-0.15-0.143-0.242s-0.025-0.189 0.001-0.281c0.026-0.092 0.075-0.175 0.145-0.241s0.154-0.112 0.247-0.133c2.417-0.61 3.38-1.234 3.762-1.624-2.652-0.485-4.21-4.151-4.276-4.32-0.041-0.097-0.053-0.204-0.034-0.307s0.070-0.199 0.144-0.273c0.070-0.076 0.162-0.129 0.263-0.151s0.207-0.013 0.302 0.026c0.14 0.044 3.446 1.205 7.090-1.558 0.113-0.079 0.251-0.112 0.388-0.093s0.26 0.089 0.347 0.196c0.081 0.112 0.115 0.251 0.096 0.388s-0.090 0.261-0.199 0.347c-0.965 0.777-2.076 1.352-3.267 1.691s-2.439 0.436-3.668 0.285c0.661 1.139 1.925 2.843 3.527 2.726 0.119-0.007 0.238 0.026 0.336 0.094s0.171 0.167 0.207 0.281c0.038 0.158 0.044 0.322 0.018 0.482s-0.085 0.314-0.172 0.451c-0.456 0.815-1.675 1.521-3.637 2.109 1.205 0.918 3.725 2.38 6.216 1.124 0.114-0.060 0.246-0.076 0.37-0.045s0.234 0.107 0.306 0.214c0.342 0.56 0.476 1.223 0.378 1.872s-0.422 1.243-0.914 1.677c1.139 0.94 3.615 3.402 2.829 6.612 1.543-0.382 4.746-1.543 5.878-4.732 0.048-0.133 0.147-0.242 0.275-0.302s0.275-0.068 0.408-0.021c0.134 0.050 0.243 0.15 0.303 0.279s0.068 0.277 0.020 0.412c-1.749 4.871-7.398 5.569-7.641 5.598l-0.022 0.044z"></path>
<path d="M4.599 13.328c-0.070 0-0.139-0.014-0.204-0.041s-0.123-0.067-0.173-0.117c-0.049-0.050-0.088-0.109-0.114-0.174s-0.039-0.135-0.038-0.205v-0.602c-0.009-0.075-0.002-0.151 0.021-0.224s0.061-0.139 0.111-0.195c0.050-0.057 0.112-0.102 0.181-0.133s0.144-0.047 0.22-0.047c0.076 0 0.151 0.016 0.22 0.047s0.131 0.076 0.181 0.133c0.050 0.057 0.088 0.123 0.111 0.195s0.030 0.148 0.021 0.224v0.602c0.001 0.071-0.012 0.141-0.039 0.206s-0.066 0.125-0.116 0.175-0.11 0.089-0.175 0.116c-0.066 0.027-0.136 0.040-0.206 0.039z"></path>
<path d="M4.599 16.362c-0.070 0-0.139-0.014-0.204-0.041s-0.123-0.067-0.173-0.117c-0.049-0.050-0.088-0.109-0.114-0.174s-0.039-0.135-0.038-0.205v-0.602c-0.009-0.075-0.002-0.151 0.021-0.224s0.061-0.139 0.111-0.195c0.050-0.057 0.112-0.102 0.181-0.133s0.144-0.047 0.22-0.047 0.151 0.016 0.22 0.047c0.069 0.031 0.131 0.076 0.181 0.133s0.088 0.123 0.111 0.195c0.023 0.072 0.030 0.148 0.021 0.224v0.602c0.001 0.071-0.012 0.141-0.039 0.206s-0.066 0.125-0.116 0.175-0.11 0.089-0.175 0.116c-0.066 0.027-0.136 0.040-0.206 0.039z"></path>
<path d="M6.421 14.54h-0.602c-0.075 0.009-0.151 0.002-0.224-0.021s-0.139-0.060-0.195-0.111-0.102-0.112-0.133-0.181c-0.031-0.069-0.047-0.144-0.047-0.22s0.016-0.151 0.047-0.22c0.031-0.069 0.076-0.131 0.133-0.181s0.123-0.088 0.195-0.111c0.072-0.023 0.148-0.030 0.224-0.021h0.602c0.075-0.009 0.151-0.002 0.224 0.021s0.139 0.060 0.195 0.111c0.057 0.050 0.102 0.112 0.133 0.181s0.047 0.144 0.047 0.22c0 0.076-0.016 0.151-0.047 0.22s-0.076 0.131-0.133 0.181c-0.057 0.050-0.123 0.088-0.195 0.111s-0.148 0.030-0.224 0.021z"></path>
<path d="M3.387 14.54h-0.602c-0.075 0.009-0.151 0.002-0.224-0.021s-0.139-0.060-0.195-0.111c-0.057-0.050-0.102-0.112-0.133-0.181s-0.047-0.144-0.047-0.22 0.016-0.151 0.047-0.22c0.031-0.069 0.076-0.131 0.133-0.181s0.123-0.088 0.195-0.111c0.072-0.023 0.148-0.030 0.224-0.021h0.602c0.075-0.009 0.151-0.002 0.224 0.021s0.139 0.060 0.195 0.111 0.102 0.112 0.133 0.181c0.031 0.069 0.047 0.144 0.047 0.22s-0.016 0.151-0.047 0.22c-0.031 0.069-0.076 0.131-0.133 0.181s-0.123 0.088-0.195 0.111c-0.072 0.023-0.148 0.030-0.224 0.021z"></path>
</symbol>
<symbol id="icon-treatment" viewBox="0 0 32 32">
<path d="M16.345 5.455c-0.092 0.023-0.189 0.032-0.283 0.017-1.335-0.343-2.574-0.986-3.622-1.882-0.095-0.101-0.148-0.235-0.147-0.374s0.053-0.272 0.149-0.373c0.095-0.101 0.225-0.162 0.364-0.17s0.275 0.037 0.382 0.125c0.928 0.761 2.011 1.309 3.174 1.605 0.069 0.018 0.134 0.050 0.19 0.093s0.104 0.098 0.139 0.159c0.035 0.062 0.058 0.13 0.067 0.201s0.003 0.143-0.016 0.211c-0.033 0.117-0.103 0.22-0.201 0.293-0.059 0.044-0.126 0.076-0.196 0.094z"></path>
<path d="M21.11 31.892c-0.107 0.022-0.222 0.031-0.329 0.008-0.111-0.033-0.208-0.101-0.277-0.194s-0.105-0.206-0.104-0.322c0-0.045-0.105-4.533-4.48-9.894-0.091-0.111-0.134-0.253-0.12-0.396s0.084-0.274 0.195-0.365c0.111-0.091 0.253-0.134 0.396-0.12s0.274 0.084 0.365 0.195c0.847 0.975 1.599 2.023 2.247 3.129 1.186 2.025 4.308 2.336 4.688 0.020 0.42-2.564-0.093-4.432-0.475-5.404-0.256-0.642-0.339-1.34-0.239-2.024 0.097-0.635 0.187-1.292 0.261-1.941 0.008-0.072 0.030-0.141 0.064-0.204s0.082-0.119 0.138-0.164c0.056-0.045 0.121-0.078 0.19-0.098s0.142-0.026 0.213-0.017 0.141 0.031 0.204 0.066c0.063 0.035 0.118 0.083 0.162 0.139s0.077 0.122 0.096 0.191c0.019 0.069 0.024 0.142 0.015 0.213-0.075 0.665-0.164 1.329-0.269 1.979-0.075 0.493-0.013 0.996 0.179 1.456 0.747 1.852 1.949 6.878-2.808 13.553-0.056 0.071-0.129 0.127-0.213 0.162-0.032 0.014-0.066 0.024-0.1 0.031z"></path>
<path d="M4.681 31.9c-0.087-0-0.172-0.021-0.249-0.062s-0.143-0.099-0.192-0.17c-4.764-6.676-3.562-11.701-2.815-13.553 0.186-0.461 0.245-0.964 0.172-1.456-0.362-2.336-0.564-4.694-0.605-7.057 0.007-4.712 3.42-8.535 7.632-8.535 0.849 0.004 1.684 0.162 2.468 0.461 1.092 0.416 2.351 0.416 3.443 0 0.783-0.299 1.619-0.456 2.468-0.461 1.781 0.017 3.493 0.696 4.802 1.904 0.053 0.049 0.096 0.108 0.126 0.174s0.047 0.136 0.050 0.209c0.003 0.072-0.009 0.144-0.034 0.212s-0.063 0.13-0.112 0.183c-0.049 0.053-0.108 0.096-0.174 0.126s-0.136 0.047-0.209 0.050-0.144-0.009-0.212-0.034c-0.068-0.025-0.13-0.063-0.183-0.112-1.060-1.007-2.457-1.583-3.918-1.618s-2.884 0.476-3.99 1.431c-0.096 0.084-0.22 0.13-0.347 0.13s-0.251-0.046-0.347-0.13c-1.070-0.915-2.43-1.423-3.838-1.434-3.607 0-6.534 3.345-6.534 7.467 0.038 2.308 0.235 4.611 0.59 6.893 0.103 0.684 0.021 1.383-0.239 2.024-0.543 1.364-1.361 4.638 0.703 9.141 0.371 0.81 1.545 0.634 1.851-0.203 0.022-0.070 0.058-0.136 0.106-0.192s0.107-0.102 0.173-0.134c0.066-0.033 0.138-0.052 0.212-0.056s0.147 0.007 0.217 0.032c0.069 0.025 0.133 0.064 0.186 0.115s0.097 0.111 0.126 0.179c0.029 0.068 0.045 0.14 0.046 0.214s-0.014 0.147-0.042 0.215c-0.44 1.128-0.707 2.317-0.792 3.525-0.001 0.115-0.038 0.227-0.107 0.319s-0.164 0.161-0.274 0.196c-0.051 0.012-0.105 0.015-0.157 0.008z"></path>
<path d="MNaNNaNclNaNNaNclNaNNaNclNaNNaNclNaNNaNclNaNNaNclNaNNaNclNaNNaNclNaNNaNclNaNNaNcNaNNaNNaNNaNNaNNaNNaNNaNNaNNaNNaNNaNNaNNaNNaNNaNNaNNaNNaNNaNNaNNaNNaNNaNNaNNaNNaNNaNNaNNaNNaNNaNNaNNaNNaNNaNNaNNaNNaNNaNNaNNaNNaNNaNNaNNaNNaNNaNNaNNaNNaNNaNNaNNaNNaNNaNNaNNaNNaNNaNNaNNaNNaNNaNNaNNaNNaNNaNNaNNaNNaNNaNNaNNaNNaNNaNNaNNaNNaNNaNNaNNaNNaNNaNNaNNaNNaNNaNNaNNaNNaNNaNNaNNaNNaNNaNNaNNaNNaNNaNNaNNaNlNaNNaNclNaNNaNclNaNNaNclNaNNaNclNaNNaNclNaNNaNclNaNNaNclNaNNaNz"></path>
<path d="MNaNNaNclNaNNaNclNaNNaNclNaNNaNclNaNNaNclNaNNaNclNaNNaNclNaNNaNclNaNNaNclNaNNaNcNaNNaNNaNNaNNaNNaNNaNNaNNaNNaNNaNNaNlNaNNaNcNaNNaNNaNNaNNaNNaNsNaNNaNNaNNaNlNaNNaNcNaNNaNNaNNaNNaNNaNsNaNNaNNaNNaNlNaNNaNcNaNNaNNaNNaNNaNNaNsNaNNaNNaNNaNlNaNNaNcNaNNaNNaNNaNNaNNaNlNaNNaNclNaNNaNclNaNNaNclNaNNaNclNaNNaNclNaNNaNclNaNNaNclNaNNaNzM8.721 20.019c-0.086-0.001-0.171 0.014-0.25 0.047s-0.152 0.080-0.213 0.14l-2.703 2.711c-0.062 0.059-0.112 0.131-0.145 0.209s-0.051 0.164-0.051 0.25 0.017 0.171 0.051 0.25c0.034 0.079 0.083 0.15 0.145 0.209l2.128 2.136c0.123 0.122 0.29 0.191 0.463 0.191s0.34-0.069 0.463-0.191l2.703-2.703c0.122-0.123 0.191-0.29 0.191-0.463s-0.069-0.34-0.191-0.463l-2.128-2.136c-0.063-0.061-0.138-0.109-0.22-0.141s-0.17-0.047-0.258-0.045h0.015z"></path>
<path d="MNaNNaNclNaNNaNclNaNNaNclNaNNaNclNaNNaNclNaNNaNclNaNNaNclNaNNaNclNaNNaNclNaNNaNcNaNNaNNaNNaNNaNNaNlNaNNaNcNaNNaNNaNNaNNaNNaNNaNNaNNaNNaNNaNNaNsNaNNaNNaNNaNcNaNNaNNaNNaNNaNNaNlNaNNaNcNaNNaNNaNNaNNaNNaNNaNNaNNaNNaNNaNNaNNaNNaNNaNNaNNaNNaNNaNNaNNaNNaNNaNNaNNaNNaNNaNNaNNaNNaNNaNNaNNaNNaNNaNNaNlNaNNaNclNaNNaNclNaNNaNclNaNNaNclNaNNaNclNaNNaNclNaNNaNclNaNNaNz"></path>
<path d="M10.7 25.186c0-0.004-0.003-0.007-0.007-0.008-0.095-0.003-0.188-0.031-0.269-0.082l-4.625-2.752c-0.112-0.067-0.23-0.136-0.295-0.249-0.032-0.055-0.054-0.116-0.065-0.179-0.023-0.129 0.002-0.261 0.069-0.373s0.172-0.197 0.296-0.238c0.062-0.021 0.126-0.030 0.19-0.028 0.129 0.004 0.245 0.074 0.356 0.14l4.627 2.76c0.103 0.061 0.184 0.153 0.229 0.264s0.053 0.234 0.021 0.349c-0.031 0.116-0.1 0.218-0.195 0.29-0.093 0.071-0.207 0.11-0.324 0.112-0.004 0-0.008-0.003-0.008-0.008z"></path>
<path d="MNaNNaNclNaNNaNclNaNNaNclNaNNaNclNaNNaNclNaNNaNclNaNNaNclNaNNaNclNaNNaNclNaNNaNcNaNNaNNaNNaNNaNNaNlNaNNaNcNaNNaNNaNNaNNaNNaNsNaNNaNNaNNaNcNaNNaNNaNNaNNaNNaNNaNNaNNaNNaNNaNNaNlNaNNaNcNaNNaNNaNNaNNaNNaNNaNNaNNaNNaNNaNNaNNaNNaNNaNNaNNaNNaNNaNNaNNaNNaNNaNNaNNaNNaNNaNNaNNaNNaNNaNNaNNaNNaNNaNNaNlNaNNaNclNaNNaNclNaNNaNclNaNNaNclNaNNaNclNaNNaNclNaNNaNclNaNNaNz"></path>
<path d="MNaNNaNclNaNNaNclNaNNaNclNaNNaNclNaNNaNclNaNNaNclNaNNaNclNaNNaNclNaNNaNclNaNNaNcNaNNaNNaNNaNNaNNaNNaNNaNNaNNaNNaNNaNNaNNaNNaNNaNNaNNaNlNaNNaNcNaNNaNNaNNaNNaNNaNNaNNaNNaNNaNNaNNaNNaNNaNNaNNaNNaNNaNsNaNNaNNaNNaNcNaNNaNNaNNaNNaNNaNNaNNaNNaNNaNNaNNaNlNaNNaNcNaNNaNNaNNaNNaNNaNlNaNNaNclNaNNaNclNaNNaNclNaNNaNclNaNNaNclNaNNaNclNaNNaNclNaNNaNz"></path>
<path d="M13.485 21.273c-0.143-0.003-0.28-0.062-0.381-0.164l-2.718-2.703c-0.095-0.101-0.148-0.235-0.148-0.373s0.053-0.272 0.148-0.373l5.421-6.25c1.792-2.077 3.747-4.007 5.847-5.772l4.368-3.659c0.107-0.088 0.242-0.134 0.381-0.127s0.269 0.065 0.366 0.164l2.703 2.703c0.095 0.101 0.148 0.235 0.148 0.373s-0.053 0.272-0.148 0.373l-3.652 4.376c-1.75 2.108-3.665 4.074-5.728 5.877l-6.243 5.421c-0.102 0.088-0.232 0.136-0.366 0.134zM12.445 16.935c-0.516 0.598-0.484 1.493 0.075 2.051 0.56 0.56 1.459 0.591 2.057 0.070l4.771-4.16c2.025-1.763 3.907-3.683 5.63-5.742l2.43-2.902c0.514-0.614 0.474-1.519-0.092-2.086s-1.471-0.607-2.086-0.093l-2.895 2.422c-2.063 1.722-3.983 3.607-5.742 5.638l-4.147 4.802z"></path>
<path d="MNaNNaNclNaNNaNclNaNNaNclNaNNaNclNaNNaNclNaNNaNclNaNNaNclNaNNaNclNaNNaNclNaNNaNcNaNNaNNaNNaNNaNNaNNaNNaNNaNNaNNaNNaNlNaNNaNcNaNNaNNaNNaNNaNNaNsNaNNaNNaNNaNcNaNNaNNaNNaNNaNNaNsNaNNaNNaNNaNlNaNNaNcNaNNaNNaNNaNNaNNaNNaNNaNNaNNaNNaNNaNsNaNNaNNaNNaNcNaNNaNNaNNaNNaNNaNlNaNNaNcNaNNaNNaNNaNNaNNaNsNaNNaNNaNNaNlNaNNaNcNaNNaNNaNNaNNaNNaNlNaNNaNclNaNNaNclNaNNaNclNaNNaNclNaNNaNclNaNNaNclNaNNaNclNaNNaNzM26.934 1.636c-0.159 0.146-0.165 0.395-0.014 0.549l2.386 2.422c0.154 0.156 0.405 0.157 0.56 0.002s0.154-0.404 0-0.558l-2.404-2.404c-0.145-0.145-0.378-0.15-0.528-0.011z"></path>
</symbol>
</defs>
</svg>
